<?xml version="1.0" standalone="no"?>
<!DOCTYPE svg PUBLIC "-//W3C//DTD SVG 20010904//EN"
 "http://www.w3.org/TR/2001/REC-SVG-20010904/DTD/svg10.dtd">
<svg version="1.0" xmlns="http://www.w3.org/2000/svg"
 width="1141.000000pt" height="1080.000000pt" viewBox="0 0 1141.000000 1080.000000"
 preserveAspectRatio="xMidYMid meet">

<g transform="translate(0.000000,1080.000000) scale(0.100000,-0.100000)"
fill="#6a5acd" stroke="none">
<path d="M3974 8543 c-20 -32 -51 -80 -69 -108 -18 -27 -54 -85 -81 -128 -27
-43 -98 -153 -159 -245 -139 -211 -313 -482 -406 -636 -40 -65 -78 -120 -84
-122 -6 -3 -105 36 -220 84 -359 153 -447 190 -530 222 -44 17 -93 37 -110 45
-16 7 -68 29 -115 48 -47 19 -147 60 -224 91 -76 32 -145 56 -153 54 -17 -4 6
-52 111 -228 38 -63 79 -133 91 -155 12 -22 36 -61 54 -86 17 -26 31 -49 31
-52 0 -3 29 -53 65 -112 36 -58 65 -108 65 -110 0 -3 74 -128 161 -270 10 -16
30 -50 44 -75 14 -25 41 -70 59 -100 19 -30 54 -90 79 -134 l46 -79 -35 -54
c-18 -29 -34 -56 -34 -59 0 -3 -10 -20 -23 -37 -12 -18 -27 -39 -32 -48 -6 -9
-22 -34 -36 -55 -63 -93 -139 -222 -139 -234 0 -18 49 -100 60 -100 23 0 40
14 40 35 0 26 23 36 58 23 13 -4 22 -4 22 2 0 6 -7 10 -15 10 -31 0 -6 43 40
68 11 6 14 12 8 12 -18 0 -16 20 2 20 9 0 15 -10 16 -22 1 -19 3 -17 11 9 12
38 3 77 -12 53 -8 -13 -10 -12 -10 3 0 14 9 17 45 17 40 0 47 3 55 26 12 32
12 34 0 34 -5 0 -10 -11 -10 -25 0 -18 -5 -25 -20 -25 -21 0 -27 15 -10 25 6
4 8 11 5 16 -4 5 1 9 9 9 10 0 13 6 10 18 -5 13 -4 14 4 3 13 -19 62 25 62 56
0 13 5 23 10 23 6 0 10 9 10 19 0 12 11 23 30 30 20 6 30 17 30 30 0 32 22 74
31 59 12 -19 29 3 32 40 1 23 7 32 20 32 9 0 17 7 17 15 0 8 5 15 11 15 8 0 8
5 -1 15 -11 13 -8 15 18 15 26 0 31 4 34 28 2 19 9 27 23 27 16 0 19 6 17 31
-2 24 2 33 23 44 16 8 24 19 20 28 -9 23 14 43 41 36 24 -6 34 9 14 21 -5 3
-10 13 -10 22 0 11 7 14 24 11 20 -4 27 1 36 26 7 17 16 39 21 49 6 10 7 28 3
39 -5 18 -3 20 20 16 27 -5 35 9 16 28 -7 7 -7 19 -1 35 5 13 10 18 10 12 1
-18 21 -16 21 2 0 8 5 15 10 15 6 0 10 -7 10 -15 0 -8 5 -15 10 -15 6 0 10 12
10 26 0 19 4 25 14 21 10 -4 16 2 18 16 2 13 13 24 28 28 18 5 20 7 6 8 -12 1
-16 6 -12 17 3 9 6 20 6 25 0 5 6 8 13 6 7 -1 13 10 15 26 3 21 8 27 29 27 18
0 24 4 19 15 -4 11 1 15 19 15 18 0 25 5 25 19 0 11 8 22 18 24 15 4 15 5 -1
6 -11 1 -21 -7 -24 -19 -4 -17 -33 -30 -33 -15 0 21 27 55 44 55 16 0 18 2 7
9 -10 7 -5 11 18 16 36 8 51 25 22 25 -11 0 -23 5 -26 10 -4 6 6 10 24 10 16
0 32 -6 34 -12 3 -7 6 8 6 35 1 35 5 47 16 47 8 0 15 -9 15 -20 0 -11 5 -20
10 -20 12 0 13 40 1 59 -6 9 -6 22 0 33 12 23 26 23 32 1 4 -14 5 -12 6 5 0
12 5 22 10 22 5 0 14 14 21 30 7 17 19 30 27 30 11 0 14 9 11 34 -3 25 0 32 9
29 9 -4 11 0 7 12 -5 13 -2 16 14 13 20 -3 76 45 64 56 -3 4 4 16 15 29 11 12
24 32 28 45 3 12 10 22 14 22 4 0 13 18 20 40 11 36 31 56 31 30 0 -5 -4 -10
-10 -10 -5 0 -10 -4 -10 -10 0 -5 6 -10 14 -10 15 0 26 21 26 51 0 18 10 23
39 19 8 -1 12 4 8 13 -3 8 5 30 19 48 13 18 24 39 24 47 0 7 4 11 9 8 9 -6 31
36 31 59 0 24 18 17 23 -7 3 -21 4 -21 11 -5 6 13 3 22 -10 32 -18 14 -18 14
1 15 13 0 30 18 50 50 19 31 37 50 49 50 14 0 17 -5 13 -21 -3 -12 -2 -18 2
-13 5 5 12 20 16 34 5 19 4 21 -4 10 -6 -8 -11 -10 -12 -5 -11 83 -11 83 22
25 17 -30 52 -95 79 -145 27 -49 67 -124 89 -165 22 -41 113 -213 202 -381
l161 -307 96 -6 c54 -3 160 -9 237 -12 77 -4 134 -9 127 -11 -6 -3 -10 -9 -7
-14 3 -4 -3 -14 -15 -21 -26 -16 -25 -24 3 -33 21 -6 20 -7 -9 -14 -41 -10
-56 -20 -48 -32 3 -6 -3 -13 -15 -16 -26 -7 -27 -20 -3 -26 16 -4 16 -5 0 -6
-21 -1 -23 -12 -5 -30 10 -11 6 -13 -20 -8 -30 6 -33 4 -33 -19 0 -16 4 -23
12 -18 7 4 8 3 4 -4 -4 -7 -13 -12 -19 -12 -20 0 -40 -39 -27 -55 8 -9 5 -14
-10 -18 -14 -4 -20 -14 -21 -34 0 -15 -3 -22 -6 -15 -2 6 -9 12 -15 12 -6 0
-8 -7 -4 -15 3 -8 1 -15 -5 -15 -6 0 -7 -5 -4 -11 4 -5 -3 -20 -14 -32 -62
-63 -85 -93 -83 -104 2 -7 -7 -14 -20 -14 -17 -1 -18 -3 -5 -6 19 -5 22 -24 6
-40 -5 -5 -11 -24 -11 -41 -1 -24 -6 -32 -26 -37 -19 -5 -23 -11 -20 -30 4
-17 0 -25 -15 -29 -13 -3 -18 -10 -14 -20 8 -19 -2 -48 -13 -41 -5 3 -15 2
-24 -1 -15 -6 -15 -8 1 -20 16 -12 15 -13 -12 -14 -27 -1 -28 -2 -12 -14 22
-17 22 -26 -1 -26 -27 0 -64 -44 -66 -79 -1 -17 -7 -36 -14 -43 -6 -6 -12 -18
-12 -26 0 -7 -6 -20 -14 -28 -12 -11 -16 -11 -22 -2 -6 9 -10 5 -14 -12 -4
-14 -12 -24 -18 -22 -22 4 -12 -16 10 -21 22 -6 22 -6 -5 -27 -15 -12 -27 -31
-27 -43 0 -18 -2 -19 -10 -7 -8 13 -10 12 -10 -2 0 -10 -4 -18 -9 -18 -5 0
-11 -12 -13 -27 -2 -21 -8 -28 -25 -28 -31 0 -41 -15 -15 -22 29 -7 28 -21 -3
-35 -14 -6 -25 -16 -26 -22 -1 -20 -9 -61 -14 -75 -4 -11 -8 -12 -17 -3 -16
16 -28 15 -28 -2 0 -8 -6 -17 -12 -20 -7 -3 -1 -4 15 -2 15 2 27 -1 27 -5 0
-5 -7 -9 -15 -9 -26 0 -80 -62 -77 -87 2 -14 -4 -27 -17 -35 -26 -16 -28 -30
-3 -21 12 4 11 1 -5 -11 -13 -9 -29 -13 -40 -9 -15 6 -16 4 -5 -9 17 -21 5
-73 -13 -58 -9 8 -14 5 -20 -12 -4 -13 -6 -29 -6 -35 1 -7 -5 -13 -14 -13 -8
0 -20 -12 -26 -27 -6 -15 -15 -30 -20 -34 -6 -3 -11 -22 -12 -42 -2 -28 -6
-37 -19 -37 -10 0 -18 -7 -18 -15 0 -8 -4 -15 -9 -15 -4 0 -6 -11 -4 -24 4
-20 0 -25 -18 -28 -13 -2 -25 -10 -25 -18 -1 -8 -2 -21 -3 -29 -1 -8 -7 -11
-17 -7 -14 5 -16 1 -11 -34 4 -35 3 -40 -14 -40 -12 0 -19 -7 -19 -20 0 -13
-5 -18 -15 -14 -9 4 -15 0 -16 -7 -3 -62 -9 -85 -28 -98 -21 -14 -29 -41 -11
-41 5 0 7 -6 4 -14 -3 -8 -14 -11 -28 -9 -13 3 -27 0 -30 -6 -4 -6 -3 -11 3
-11 11 0 -30 -89 -41 -90 -5 0 -8 7 -8 16 0 8 -4 13 -9 10 -5 -3 -7 -15 -4
-26 4 -14 -3 -30 -18 -46 -20 -21 -21 -26 -9 -34 12 -8 8 -12 -17 -22 -33 -12
-44 -28 -20 -28 6 -1 1 -7 -12 -14 -23 -13 -23 -14 -5 -18 16 -4 15 -7 -10
-17 -27 -11 -28 -13 -11 -25 13 -9 15 -15 6 -20 -6 -4 -18 -2 -26 4 -12 10
-15 9 -15 -10 0 -19 -5 -21 -42 -19 -44 2 -78 -7 -78 -21 0 -9 56 -8 65 2 4 4
18 2 32 -5 21 -9 27 -8 38 7 14 19 46 19 52 -1 2 -6 -10 -18 -28 -27 -29 -15
-34 -15 -56 0 -22 14 -27 14 -53 -3 -22 -14 -27 -22 -20 -33 7 -10 10 -11 10
-2 0 13 45 7 66 -9 6 -5 14 -6 17 -3 4 4 11 -5 16 -19 7 -19 15 -24 29 -20 14
3 22 -1 27 -17 5 -15 12 -19 25 -15 11 3 30 0 42 -7 l23 -12 -30 -6 c-24 -5
-29 -10 -28 -28 2 -14 -3 -22 -12 -22 -20 0 -19 -10 3 -26 15 -12 14 -14 -13
-15 -16 -1 -45 -1 -62 0 -24 2 -33 -2 -33 -13 0 -10 6 -13 18 -9 11 3 9 0 -6
-11 -20 -16 -22 -44 -2 -31 12 8 57 -33 45 -42 -5 -5 -10 -14 -11 -20 -1 -7
-2 -17 -2 -23 -1 -5 -15 -10 -32 -10 -24 0 -30 4 -30 21 0 14 5 19 13 16 8 -3
20 -1 28 4 12 7 12 9 -1 10 -8 1 -24 1 -35 0 -18 -2 -20 3 -17 39 4 40 -6 51
-26 27 -8 -9 -8 -24 -1 -51 6 -20 7 -46 4 -56 -5 -16 -2 -20 19 -20 14 0 26
-4 26 -10 0 -5 -14 -10 -31 -10 -22 0 -28 -3 -22 -12 4 -7 8 -21 8 -30 0 -10
5 -18 10 -18 6 0 10 10 10 23 0 13 6 22 15 22 9 0 15 -10 15 -25 1 -18 6 -24
18 -22 9 2 17 -2 17 -8 0 -5 -13 -10 -30 -10 -16 0 -30 -5 -30 -11 0 -7 10 -9
25 -5 23 6 24 5 15 -20 -14 -35 -13 -37 10 -52 16 -10 24 -10 40 0 16 11 23
10 37 -5 17 -17 17 -19 1 -31 -10 -7 -18 -19 -18 -27 0 -11 2 -11 11 1 9 13
10 13 6 0 -2 -9 -15 -15 -33 -15 -22 0 -28 4 -26 18 2 12 -4 17 -21 17 -12 0
-28 -5 -33 -10 -7 -7 -19 -7 -36 -1 -25 9 -25 9 -22 -31 4 -42 18 -68 38 -68
8 0 11 12 8 35 -3 26 0 36 12 41 9 4 20 3 24 -1 4 -4 1 -10 -5 -12 -23 -8 -14
-40 12 -47 28 -7 25 -24 -12 -70 -28 -33 -25 -39 12 -30 16 4 31 17 37 33 l10
26 9 -23 c5 -13 7 -27 4 -32 -3 -4 4 -10 15 -13 17 -4 20 0 20 24 0 16 -7 41
-16 54 -15 22 -15 25 -1 31 26 10 37 -5 37 -52 0 -24 5 -44 10 -44 6 0 10 13
10 29 0 16 7 34 16 41 13 11 16 10 21 -8 3 -12 9 -22 14 -22 5 0 9 -9 9 -20 0
-25 -27 -27 -33 -2 -4 13 -5 11 -6 -5 0 -13 4 -23 10 -23 8 0 7 -6 -2 -17 -11
-13 -11 -17 -1 -20 6 -3 12 -11 12 -19 0 -8 7 -14 15 -14 17 0 20 -16 6 -24
-12 -8 -39 3 -44 17 -2 7 -2 2 0 -11 2 -16 -1 -22 -16 -22 -12 0 -20 -9 -23
-25 -6 -29 7 -32 34 -8 13 12 22 13 29 6 8 -8 -3 -19 -37 -39 -26 -15 -42 -30
-35 -32 6 -2 23 4 37 13 25 16 26 16 20 -3 -8 -24 29 -39 38 -15 3 8 11 11 17
7 8 -4 7 -9 -2 -15 -10 -6 -10 -9 -2 -9 7 0 10 -6 7 -14 -3 -8 -1 -17 5 -21 6
-3 11 -1 11 6 0 10 3 10 11 2 18 -18 -1 -35 -32 -31 -33 5 -55 -13 -45 -37 7
-19 36 -20 36 0 0 8 4 15 9 15 4 0 7 -19 5 -42 -2 -26 1 -45 9 -50 9 -6 9 -10
-3 -18 -13 -9 -13 -11 0 -20 13 -9 13 -11 0 -20 -11 -7 -16 -5 -18 5 -2 8 -10
15 -18 15 -19 0 -18 10 4 26 14 11 15 13 1 14 -8 0 -20 -5 -27 -12 -9 -9 -12
-8 -12 4 0 8 7 21 15 28 21 17 19 30 -5 30 -23 0 -41 31 -21 38 9 3 9 7 0 19
-16 18 3 33 32 26 28 -8 24 26 -3 36 -18 7 -25 4 -30 -9 -8 -21 -27 -35 -35
-26 -3 3 0 12 7 21 10 12 10 15 -2 15 -8 0 -19 -5 -25 -11 -7 -7 -20 -9 -30
-5 -17 7 -17 8 0 17 9 6 17 19 17 29 0 11 5 20 10 20 24 0 7 20 -17 21 -18 1
-22 3 -10 6 15 4 16 7 5 21 -11 13 -11 15 4 9 12 -4 15 -2 11 9 -3 8 -18 14
-34 14 -29 0 -40 15 -17 22 7 3 8 9 3 19 -5 8 -8 21 -7 30 2 9 -4 19 -13 22
-8 4 -15 3 -15 -1 0 -4 -19 -7 -42 -5 -24 1 -35 0 -25 -3 9 -3 17 -9 17 -14 0
-5 -8 -11 -17 -14 -10 -3 1 -4 25 -3 46 3 56 -7 17 -17 -18 -5 -25 -13 -25
-31 0 -29 -26 -35 -32 -7 -2 9 -4 -4 -4 -30 -1 -42 2 -48 20 -48 21 1 21 1 2
15 -19 15 -19 15 2 15 12 0 22 5 22 11 0 26 25 -19 27 -49 2 -25 -2 -32 -17
-32 -10 0 -26 -3 -35 -6 -13 -5 -8 -10 20 -20 29 -10 40 -10 49 -1 15 16 19
44 6 52 -5 3 -10 22 -10 41 0 25 4 34 16 34 10 0 14 -5 10 -15 -3 -8 -9 -22
-12 -30 -5 -11 1 -15 20 -15 25 0 36 -15 16 -22 -14 -4 -19 -60 -7 -75 7 -9
14 -10 29 -2 22 12 48 -3 48 -27 0 -19 -10 -18 -26 4 -11 14 -13 15 -14 2 0
-12 -8 -15 -34 -12 -27 3 -33 7 -29 23 3 10 0 19 -6 19 -6 0 -11 -5 -11 -10 0
-6 -15 -8 -40 -4 -49 8 -55 -11 -6 -20 19 -4 37 -13 40 -21 3 -8 17 -15 31
-15 17 0 25 -5 23 -14 -2 -8 6 -22 17 -30 11 -9 14 -16 8 -16 -15 0 -18 -20
-3 -20 5 0 20 11 34 25 24 24 56 34 56 17 0 -18 -73 -67 -96 -64 -13 2 -24 -1
-24 -7 0 -6 -8 -11 -19 -11 -11 0 -21 -9 -24 -22 l-6 -23 -21 22 c-11 12 -20
26 -20 32 0 5 -7 11 -15 15 -10 4 -15 -1 -15 -14 0 -12 7 -20 16 -20 9 0 14
-6 11 -12 -2 -7 -10 -12 -17 -10 -20 4 -51 -9 -44 -19 3 -5 11 -6 17 -2 33 21
77 2 70 -29 -4 -14 -2 -20 3 -15 5 5 10 12 10 15 10 48 34 71 34 33 0 -11 5
-23 10 -26 8 -5 8 -11 0 -20 -13 -16 -5 -22 35 -26 23 -3 30 0 33 15 3 15 0
17 -14 12 -17 -5 -17 -4 1 9 11 9 19 25 17 35 -3 16 3 20 27 20 16 0 31 5 33
11 2 6 13 9 23 6 19 -5 19 -5 -2 -12 -39 -13 -26 -28 17 -21 36 6 40 4 40 -14
0 -22 -10 -26 -27 -9 -7 7 -19 8 -30 4 -10 -5 -23 -7 -30 -6 -7 1 -17 -18 -23
-41 -6 -24 -15 -51 -20 -60 -14 -25 -1 -22 21 4 11 11 19 34 19 50 0 15 4 28
10 28 5 0 7 -6 4 -14 -6 -15 22 -30 38 -20 5 3 7 13 4 21 -4 9 -1 13 6 10 8
-2 12 -18 10 -36 -2 -25 2 -34 16 -38 11 -2 22 -20 29 -44 9 -36 9 -39 -10
-39 -19 0 -20 -1 -2 -20 10 -11 24 -20 32 -20 7 0 13 -4 13 -10 0 -13 -17 -13
-25 0 -4 6 -14 10 -23 9 -10 -1 -25 -1 -35 0 -17 1 -17 3 2 27 25 32 26 44 6
44 -8 0 -15 5 -15 10 0 6 7 10 15 10 8 0 15 4 15 9 0 15 -51 43 -66 37 -18 -7
-35 -48 -24 -60 5 -5 4 -20 -1 -34 -8 -22 -8 -23 6 -12 13 11 14 10 8 -6 -6
-17 -5 -18 11 -5 16 13 16 16 2 26 -12 9 -13 14 -4 23 18 18 25 15 30 -13 3
-14 1 -25 -3 -25 -5 0 -8 -11 -7 -24 1 -14 5 -23 9 -20 4 2 22 -12 41 -32 22
-24 40 -34 54 -31 14 2 21 -1 20 -11 -1 -8 25 -28 57 -45 34 -18 53 -33 46
-37 -8 -6 -8 -9 0 -14 6 -4 11 -2 11 4 0 7 6 10 13 7 6 -2 11 -10 10 -16 -2
-6 2 -11 7 -11 6 0 10 6 10 13 0 8 3 7 10 -3 6 -9 5 -17 -3 -22 -8 -5 -7 -8 5
-8 10 0 33 -16 53 -36 27 -27 41 -34 58 -29 22 7 22 7 2 -9 -14 -12 -16 -16
-5 -15 8 1 23 -1 33 -6 15 -6 16 -10 5 -16 -9 -6 -10 -9 -1 -9 7 0 39 -20 72
-45 32 -25 64 -45 69 -45 5 0 13 -7 16 -16 4 -9 9 -14 13 -10 3 3 13 -3 20
-14 8 -11 29 -28 46 -37 18 -9 37 -23 44 -32 6 -9 16 -17 22 -17 6 -1 16 -2
23 -3 6 0 8 -4 5 -7 -4 -4 13 -19 36 -34 23 -15 58 -41 77 -59 19 -17 45 -34
57 -37 13 -3 20 -10 17 -15 -3 -5 2 -9 11 -9 9 0 33 -16 53 -35 20 -19 40 -35
43 -35 3 0 15 -8 26 -18 51 -44 254 -192 263 -192 5 0 32 -21 62 -46 29 -25
63 -50 76 -55 12 -5 22 -13 22 -18 0 -6 7 -7 17 -4 10 4 14 2 9 -5 -3 -6 19
-30 54 -57 33 -25 60 -44 60 -41 0 3 -14 29 -31 58 -18 29 -40 67 -49 83 -9
17 -54 90 -99 163 -44 74 -81 136 -81 138 0 2 -12 23 -27 47 -15 23 -33 51
-39 62 -6 11 -23 43 -39 70 -15 28 -34 57 -41 66 -8 8 -14 19 -14 22 0 4 -18
36 -40 72 -22 36 -40 69 -40 74 0 5 -3 11 -7 13 -5 1 -19 23 -32 48 -14 25
-27 47 -30 50 -6 5 -24 37 -58 100 -10 19 -21 37 -24 40 -4 3 -21 32 -40 65
-18 33 -50 86 -71 117 -21 31 -38 61 -38 66 0 4 -8 17 -17 28 -10 10 -26 35
-35 54 -10 19 -36 64 -57 100 -59 97 -115 194 -120 205 -2 6 -15 24 -28 41
-12 17 -23 36 -23 42 0 7 -3 12 -8 12 -4 0 -15 18 -24 39 -10 22 -26 48 -36
58 -11 10 -22 30 -26 46 -3 15 -11 27 -16 27 -6 0 -10 6 -10 13 0 7 -9 23 -20
35 -11 12 -20 24 -21 27 0 11 -34 65 -41 65 -4 0 -5 7 -2 15 4 8 1 15 -4 15
-6 0 -14 9 -17 21 -4 12 -12 18 -21 15 -7 -3 -16 -1 -19 4 -4 6 1 10 9 10 22
0 21 3 -28 75 -25 37 -47 59 -49 52 -3 -6 -6 1 -6 16 -1 33 -14 60 -42 88 -10
10 -19 26 -19 34 0 13 -11 19 -31 17 -4 -1 -7 15 -7 36 0 20 -5 38 -11 40 -6
2 -11 11 -11 20 -1 15 -2 15 -14 0 -16 -22 -30 -24 -23 -3 4 8 2 17 -4 20 -5
4 -7 11 -3 16 10 17 -6 59 -23 59 -9 0 -13 3 -10 7 5 5 -21 59 -40 83 -7 9
-23 -25 -23 -50 0 -19 -3 -21 -12 -12 -16 16 -28 15 -28 -3 0 -8 -4 -15 -9
-15 -11 0 -22 34 -27 83 -3 28 0 37 12 37 9 0 14 -6 11 -12 -6 -18 11 -48 28
-48 11 0 14 11 11 45 -3 36 0 46 15 50 10 4 23 4 27 1 10 -6 756 -66 819 -66
16 0 31 -19 66 -82 24 -46 54 -101 67 -122 12 -22 33 -61 47 -87 13 -26 35
-59 49 -74 13 -14 22 -30 19 -35 -3 -5 -1 -11 5 -15 5 -3 10 1 10 10 0 9 12
18 30 22 31 6 42 23 15 23 -27 0 -16 17 14 23 19 4 34 16 43 34 8 17 20 27 31
25 11 -2 15 2 11 13 -3 8 -3 23 0 32 6 15 8 15 16 3 9 -13 10 -13 10 0 0 8 10
21 21 29 18 10 19 15 8 22 -10 6 -10 9 -1 9 6 0 21 9 32 20 20 20 20 20 -5 20
-55 0 -11 34 51 39 8 0 12 6 8 12 -4 7 -10 7 -16 1 -11 -11 -38 -5 -38 8 0 5
12 10 28 12 15 2 27 8 26 13 -1 6 13 16 30 23 17 7 34 20 39 28 4 7 15 14 22
14 14 0 20 24 16 58 -1 6 2 12 8 12 5 0 12 -6 14 -12 3 -8 6 -6 6 5 1 10 9 17
21 17 20 0 28 16 10 22 -17 5 1 48 20 48 10 0 21 6 23 13 4 9 6 9 6 0 1 -15
31 -18 31 -3 0 6 -4 10 -10 10 -5 0 -10 5 -10 11 0 7 10 9 28 5 15 -4 22 -3
17 1 -6 4 -12 19 -12 32 -2 18 2 22 18 18 14 -4 17 -2 11 10 -6 10 2 25 26 49
37 37 52 42 52 18 0 -8 5 -12 10 -9 7 4 5 14 -5 28 -20 28 -19 37 3 37 9 0 24
15 32 33 10 21 26 36 49 43 22 7 30 14 22 19 -7 4 -18 2 -24 -4 -6 -6 -18 -11
-26 -10 -14 0 -14 1 -1 6 20 8 70 60 70 73 0 5 7 10 15 10 8 0 15 5 15 10 0 6
7 10 15 10 8 0 15 5 15 11 0 7 8 18 18 25 16 13 16 13 -2 14 -23 0 -12 15 12
15 10 0 16 7 16 18 -1 9 4 17 12 17 8 0 14 7 14 15 0 8 9 15 20 15 22 0 26 10
9 27 -6 6 -8 17 -4 24 6 9 12 7 23 -7 13 -17 14 -15 7 21 l-7 39 21 -24 c17
-21 22 -23 30 -11 7 11 5 19 -7 28 -16 12 -15 13 6 19 24 7 30 29 10 37 -7 3
-2 6 12 6 19 1 22 3 10 11 -12 8 -12 10 3 16 9 3 27 4 38 1 15 -4 19 -2 15 10
-4 9 1 17 14 20 11 3 20 9 20 13 0 5 6 10 13 13 6 2 2 2 -10 0 -37 -6 -24 32
12 38 12 3 20 13 21 25 1 12 4 26 8 33 11 16 29 13 22 -4 -3 -8 -1 -15 4 -15
6 0 10 11 10 25 0 15 6 25 15 25 8 0 19 9 25 20 7 14 7 20 0 20 -5 0 -10 5
-10 10 0 6 5 10 11 10 16 0 40 27 37 42 -2 7 8 14 21 16 13 2 26 12 28 23 5
18 15 23 40 20 9 -1 9 7 3 30 -9 30 4 59 26 59 5 0 3 -5 -4 -12 -30 -30 -6
-37 26 -8 26 24 29 50 6 50 -8 0 -12 5 -9 10 4 6 15 8 26 5 11 -4 19 -2 19 4
0 6 -4 11 -10 11 -5 0 -10 7 -10 15 0 12 4 13 19 5 29 -15 34 -13 27 15 -4 17
-2 26 6 27 7 0 20 2 28 2 8 1 14 8 12 15 -5 23 20 43 45 36 18 -4 23 -1 23 13
0 10 5 23 12 30 9 9 8 12 -3 16 -39 12 -41 15 -9 13 32 -2 35 0 32 23 -3 20
-2 22 11 12 11 -10 18 -8 32 8 10 11 19 30 20 43 1 12 8 22 15 22 7 0 16 8 20
19 3 10 17 24 31 32 l24 13 -30 2 c-17 1 -23 3 -12 6 9 2 17 11 17 19 0 8 9
14 20 14 11 0 20 5 20 11 0 11 24 39 34 39 3 0 6 -9 6 -21 0 -13 4 -18 12 -13
8 5 9 0 6 -14 -4 -12 -2 -20 2 -17 5 3 56 -86 115 -197 168 -317 147 -288 208
-289 79 -2 113 -12 109 -32 -2 -10 3 -17 13 -17 29 0 15 -17 -25 -29 -22 -7
-38 -16 -35 -21 3 -5 1 -11 -5 -15 -5 -3 -7 -17 -4 -31 5 -21 3 -24 -20 -24
-21 0 -26 -5 -26 -24 0 -14 -5 -28 -10 -31 -6 -4 -10 -14 -9 -23 1 -10 1 -28
0 -42 -1 -19 -4 -21 -10 -11 -11 17 -41 7 -41 -13 0 -8 8 -19 17 -25 16 -8 14
-10 -10 -16 -15 -4 -27 -13 -27 -21 0 -8 -10 -14 -22 -14 -21 -1 -21 -2 -5
-11 25 -14 10 -32 -20 -24 -21 5 -24 3 -19 -10 3 -9 6 -19 6 -21 0 -2 9 -4 20
-4 19 0 20 -1 4 -24 -8 -14 -27 -26 -42 -28 -18 -2 -28 -10 -30 -23 -3 -16 -1
-17 7 -5 7 11 13 12 21 4 8 -8 3 -20 -20 -43 -17 -17 -29 -35 -25 -41 3 -5 0
-10 -7 -10 -14 0 -37 -43 -39 -69 0 -12 -3 -10 -10 4 -8 17 -9 15 -6 -11 2
-22 -2 -35 -14 -42 -10 -6 -19 -24 -21 -39 -2 -20 -8 -28 -23 -27 -17 0 -20
-5 -17 -42 3 -30 0 -43 -12 -47 -8 -3 -18 -2 -21 3 -13 22 -20 8 -17 -32 4
-35 2 -40 -12 -35 -9 4 -16 2 -16 -3 0 -6 8 -10 18 -11 11 -1 8 -4 -8 -8 -18
-5 -26 -15 -28 -34 -2 -20 -9 -27 -24 -27 -16 0 -18 -3 -9 -14 12 -15 -1 -34
-37 -56 -15 -8 -15 -11 -2 -21 11 -8 12 -12 3 -16 -7 -2 -13 -13 -13 -23 0
-10 -9 -22 -21 -25 -14 -5 -19 -13 -16 -25 3 -12 -5 -25 -24 -39 -19 -14 -26
-27 -22 -37 3 -9 0 -20 -8 -25 -8 -4 -14 -14 -14 -21 0 -7 -11 -15 -25 -19
-14 -4 -20 -7 -13 -8 17 -1 26 -38 14 -58 -6 -10 -11 -12 -11 -5 0 14 -9 15
-30 2 -12 -7 -12 -12 -2 -22 18 -18 15 -26 -10 -30 -18 -2 -23 -9 -23 -35 0
-17 -3 -35 -7 -39 -5 -4 -8 -2 -8 4 0 7 -4 12 -10 12 -20 0 -10 -28 13 -35 21
-7 21 -7 2 -12 -11 -3 -26 -10 -33 -16 -17 -13 -43 -77 -37 -87 3 -4 -2 -10
-10 -14 -8 -3 -15 -15 -15 -26 0 -11 -7 -20 -15 -20 -18 0 -20 -20 -2 -20 6 0
-2 -13 -19 -29 -29 -26 -55 -69 -34 -56 6 3 10 -1 10 -9 0 -8 -4 -18 -10 -21
-5 -3 -10 -1 -10 4 0 6 -7 11 -15 11 -17 0 -20 -16 -5 -25 18 -11 11 -25 -12
-25 -18 0 -20 -2 -8 -10 16 -10 17 -9 -29 -37 -28 -17 -31 -22 -19 -34 13 -11
12 -16 -4 -34 -22 -23 -43 -67 -52 -108 -4 -15 -12 -27 -19 -27 -15 0 -60 -87
-52 -101 4 -5 3 -14 -1 -21 -5 -8 -10 -6 -15 8 -7 19 -7 19 -15 -1 -4 -11 -12
-23 -18 -27 -6 -4 -15 -29 -21 -55 -8 -37 -15 -47 -28 -45 -11 2 -15 -2 -11
-11 3 -8 -10 -27 -30 -45 -38 -33 -45 -56 -22 -65 12 -5 12 -11 3 -31 -8 -16
-14 -20 -19 -13 -5 9 -12 7 -25 -5 -11 -11 -13 -18 -5 -18 19 0 14 -20 -5 -21
-13 0 -12 -3 6 -10 25 -10 446 -45 641 -53 63 -3 209 -12 324 -21 172 -13 211
-14 221 -3 7 7 99 153 205 323 106 171 296 477 423 680 213 342 377 606 597
960 48 77 162 261 254 409 92 147 165 270 162 273 -3 3 -124 12 -268 19 -483
24 -683 36 -688 43 -3 3 -12 6 -20 6 -9 0 -14 7 -12 18 2 10 -3 17 -14 17 -12
0 -15 6 -11 21 4 16 2 19 -10 15 -11 -5 -14 -1 -10 13 3 14 1 18 -9 14 -9 -3
-14 2 -14 16 0 15 -7 21 -22 22 -13 0 -18 3 -12 5 17 7 -9 110 -27 106 -8 -2
-17 -9 -21 -15 -5 -7 -8 -4 -8 10 0 12 5 25 10 28 6 4 7 11 4 17 -4 6 0 14 7
19 11 7 10 9 -4 9 -11 0 -29 8 -42 18 -21 17 -21 19 -7 30 15 9 14 11 -8 12
-14 1 -19 4 -12 7 10 4 9 8 -4 17 -17 13 -11 41 7 31 18 -12 8 8 -26 49 -19
24 -35 49 -35 56 0 7 -7 10 -16 6 -8 -3 -13 -2 -9 3 3 5 -1 12 -7 14 -10 4
-10 6 0 6 23 2 12 21 -12 21 -19 0 -24 5 -23 20 1 11 6 20 11 20 5 0 -2 13
-17 28 -15 15 -27 35 -27 43 0 12 -2 12 -10 -1 -8 -13 -10 -12 -10 3 0 9 5 17
10 17 6 0 10 5 10 11 0 6 -8 8 -19 4 -26 -8 -36 11 -14 24 16 10 16 11 -5 17
-19 5 -23 12 -19 31 2 13 -1 27 -7 31 -15 9 -46 74 -46 96 0 9 -6 16 -13 16
-8 0 -14 6 -14 13 -1 22 -8 41 -20 55 -7 7 -13 22 -13 33 0 15 -6 19 -22 17
-21 -3 -23 1 -21 35 2 32 -1 40 -18 44 -15 4 -20 12 -17 28 4 18 1 21 -21 17
l-26 -5 20 22 c18 21 18 24 4 34 -9 7 -19 29 -23 49 -6 33 -11 38 -42 44 -22
4 -31 9 -24 14 20 13 -134 22 -1010 60 -270 12 -484 26 -497 32 -12 6 -34 7
-49 4 -24 -6 -26 -5 -15 8 11 13 11 16 1 16 -9 0 -7 7 6 22 10 12 13 18 6 14
-19 -11 -52 3 -52 24 0 10 -7 25 -15 34 -18 18 -20 37 -2 32 6 -1 9 -1 5 1 -5
3 -8 12 -8 21 0 15 -2 15 -10 2 -8 -13 -10 -13 -10 1 0 9 -7 22 -15 29 -8 7
-13 16 -10 20 3 5 1 11 -5 15 -5 3 -10 14 -10 24 0 10 -11 24 -25 31 -14 7
-25 22 -25 32 0 10 -7 21 -15 24 -14 6 -13 8 2 20 13 9 14 13 4 14 -8 0 -11 6
-7 15 3 9 -1 18 -9 21 -7 3 -17 19 -20 35 -4 16 -11 27 -16 23 -5 -3 -9 4 -9
15 0 33 -11 50 -27 44 -11 -4 -14 -3 -9 6 5 8 1 14 -10 17 -22 6 -47 51 -33
60 16 10 10 24 -11 24 -21 0 -28 16 -10 22 14 4 -15 64 -35 72 -8 3 -15 12
-15 21 0 8 -3 15 -7 15 -12 0 -33 51 -33 77 0 12 -9 27 -20 33 -11 6 -20 21
-20 34 0 30 -26 82 -45 90 -8 3 -15 17 -15 31 0 16 -6 25 -16 25 -11 0 -14 6
-9 20 5 15 -1 27 -21 43 -16 12 -32 21 -37 19 -5 -1 -6 6 -2 17 6 20 -21 77
-56 114 -13 15 -18 29 -14 45 5 21 3 23 -16 17 -14 -5 -19 -4 -15 4 5 7 -4 11
-26 11 -18 0 -91 4 -163 9 -71 5 -180 12 -242 16 l-112 7 -37 -59z m33 -485
c-3 -8 -6 -5 -6 6 -1 11 2 17 5 13 3 -3 4 -12 1 -19z m-47 -67 c0 -6 -4 -13
-10 -16 -5 -3 -10 1 -10 9 0 9 5 16 10 16 6 0 10 -4 10 -9z m-899 -699 c-7 -2
-18 1 -23 6 -8 8 -4 9 13 5 13 -4 18 -8 10 -11z m64 -1 c-3 -6 -11 -11 -16
-11 -5 0 -4 6 3 14 14 16 24 13 13 -3z m3762 -243 c-3 -7 -5 -2 -5 12 0 14 2
19 5 13 2 -7 2 -19 0 -25z m-3613 -12 c-7 -18 -20 -21 -29 -6 -3 6 1 10 9 10
9 0 16 5 16 12 0 6 2 9 5 6 3 -3 3 -13 -1 -22z m3756 -257 c0 -11 -4 -17 -10
-14 -5 3 -10 13 -10 21 0 8 5 14 10 14 6 0 10 -9 10 -21z m-2130 -88 c0 -11
-31 -24 -39 -16 -3 3 1 10 9 15 19 12 30 12 30 1z m-33 -61 c-10 -14 -17 -18
-22 -10 -4 6 1 17 11 25 25 18 30 11 11 -15z m-1972 -60 c3 -5 1 -10 -4 -10
-6 0 -11 5 -11 10 0 6 2 10 4 10 3 0 8 -4 11 -10z m1762 -272 c-3 -8 -6 -5 -6
6 -1 11 2 17 5 13 3 -3 4 -12 1 -19z m2673 -78 c0 -5 -2 -10 -4 -10 -3 0 -8 5
-11 10 -3 6 -1 10 4 10 6 0 11 -4 11 -10z m-3010 -530 c0 -5 -5 -10 -11 -10
-5 0 -7 5 -4 10 3 6 8 10 11 10 2 0 4 -4 4 -10z m-255 -410 c3 -5 1 -10 -4
-10 -6 0 -11 5 -11 10 0 6 2 10 4 10 3 0 8 -4 11 -10z m-52 -117 c-7 -2 -19
-2 -25 0 -7 3 -2 5 12 5 14 0 19 -2 13 -5z m-296 -619 c-3 -3 -12 -4 -19 -1
-8 3 -5 6 6 6 11 1 17 -2 13 -5z m-140 -60 c-3 -3 -12 -4 -19 -1 -8 3 -5 6 6
6 11 1 17 -2 13 -5z m93 -13 c0 -19 -22 -23 -38 -7 -15 15 -14 16 11 16 15 0
27 -4 27 -9z m120 -31 c0 -5 -5 -10 -11 -10 -5 0 -7 5 -4 10 3 6 8 10 11 10 2
0 4 -4 4 -10z m10 -70 c0 -5 -4 -10 -10 -10 -5 0 -10 5 -10 10 0 6 5 10 10 10
6 0 10 -4 10 -10z m44 -25 c-4 -8 -11 -12 -16 -9 -6 4 -5 10 3 15 19 12 19 11
13 -6z m-46 -21 c-4 -3 -19 -4 -35 -2 l-28 4 25 11 c23 10 51 1 38 -13z m7
-44 c3 -6 -6 -15 -20 -20 -34 -13 -55 -13 -55 0 0 6 7 10 15 10 8 0 15 5 15
10 0 13 37 13 45 0z m45 -15 c5 3 11 1 15 -5 3 -6 0 -13 -9 -16 -8 -3 -12 -12
-9 -21 5 -13 3 -13 -16 -3 -16 8 -26 8 -35 1 -7 -6 -16 -8 -19 -4 -14 13 -6
23 19 23 15 0 23 4 19 10 -4 6 -1 18 7 27 12 15 13 15 16 -1 2 -9 7 -14 12
-11z m63 -15 c3 -13 0 -20 -8 -20 -11 0 -13 14 -6 38 3 8 9 -1 14 -18z m-188
-10 c17 -7 15 -9 -12 -9 -18 -1 -33 4 -33 9 0 12 17 12 45 0z m4 -41 c17 -6
31 -15 31 -20 0 -4 6 -6 14 -3 25 10 26 -13 1 -24 -19 -9 -23 -8 -19 3 6 15
-25 35 -55 35 -12 0 -21 5 -21 10 0 13 10 13 49 -1z m171 -19 c-12 -7 -11 -12
4 -29 18 -20 18 -21 2 -21 -10 0 -29 9 -43 20 -24 18 -24 20 -6 20 13 0 23 9
27 22 4 18 8 20 18 10 10 -10 10 -15 -2 -22z m-210 -27 c-1 -18 -18 -35 -24
-24 -4 6 -4 16 -1 21 7 12 25 13 25 3z m39 -29 c-10 -13 -10 -17 2 -25 21 -13
29 -11 29 7 0 8 4 13 9 10 16 -10 5 -41 -14 -38 -16 3 -16 2 -1 -20 9 -12 16
-29 16 -38 0 -13 -1 -13 -10 0 -9 13 -12 13 -21 -2 -5 -10 -17 -18 -25 -18 -8
0 -12 5 -9 11 9 14 -3 59 -15 59 -6 0 -10 -6 -10 -14 0 -23 -18 -28 -50 -14
-34 15 -37 23 -14 45 11 12 18 13 27 4 6 -6 21 -11 34 -11 18 0 23 6 23 24 0
15 7 26 18 29 9 3 19 5 21 6 2 0 -2 -6 -10 -15z m236 6 c-3 -5 -10 -10 -16
-10 -5 0 -9 5 -9 10 0 6 7 10 16 10 8 0 12 -4 9 -10z m-135 -10 c0 -5 -9 -10
-21 -10 -11 0 -17 5 -14 10 3 6 13 10 21 10 8 0 14 -4 14 -10z m30 6 c0 -3 -4
-8 -10 -11 -5 -3 -10 -1 -10 4 0 6 5 11 10 11 6 0 10 -2 10 -4z m140 -16 c0
-5 -5 -10 -11 -10 -5 0 -7 5 -4 10 3 6 8 10 11 10 2 0 4 -4 4 -10z m-95 -20
c-3 -5 -11 -10 -16 -10 -6 0 -7 5 -4 10 3 6 11 10 16 10 6 0 7 -4 4 -10z m-81
-16 c9 -3 16 -12 16 -19 0 -7 7 -15 15 -19 8 -3 15 -10 15 -16 0 -5 -7 -10
-15 -10 -8 0 -15 7 -15 16 0 11 -6 15 -20 11 -23 -6 -34 7 -26 28 6 17 8 17
30 9z m179 -82 c-4 -10 -9 -10 -22 0 -9 7 -17 13 -19 14 -2 1 8 1 21 0 15 0
23 -6 20 -14z m-333 -7 c0 -8 -7 -15 -15 -15 -8 0 -15 7 -15 15 0 8 7 15 15
15 8 0 15 -7 15 -15z m197 9 c-3 -3 -12 -4 -19 -1 -8 3 -5 6 6 6 11 1 17 -2
13 -5z m-91 -16 c3 -4 1 -15 -5 -25 -6 -10 -11 -13 -11 -7 0 7 -9 14 -20 17
-29 7 -25 28 5 24 13 -1 27 -6 31 -9z m47 -4 c9 -9 -4 -35 -14 -28 -5 3 -9 12
-9 20 0 14 12 19 23 8z m-97 -24 c8 0 14 -5 14 -10 0 -10 -56 -11 -74 -2 -13
7 17 23 32 17 8 -3 20 -5 28 -5z m-86 -14 c-6 -8 -18 -12 -26 -9 -23 9 -16 23
12 23 22 0 24 -2 14 -14z m420 -6 c0 -5 -4 -10 -10 -10 -5 0 -10 5 -10 10 0 6
5 10 10 10 6 0 10 -4 10 -10z m-140 -16 c0 -17 -22 -14 -28 4 -2 7 3 12 12 12
9 0 16 -7 16 -16z m-160 -22 c0 -14 -23 -32 -42 -32 -25 0 -23 13 5 26 28 15
37 16 37 6z m30 -17 c-27 -14 -36 -13 -25 4 3 6 16 11 28 11 21 -1 21 -1 -3
-15z m145 -5 c3 -5 -3 -10 -14 -10 -12 0 -21 5 -21 10 0 6 6 10 14 10 8 0 18
-4 21 -10z m-75 -23 c8 -3 -2 -6 -22 -6 -37 -1 -38 -2 -38 -41 0 -22 5 -40 10
-40 6 0 10 -7 10 -15 0 -8 -4 -15 -10 -15 -5 0 -10 6 -10 13 0 7 -9 18 -20 25
-12 7 -20 8 -20 2 0 -16 -24 -11 -42 9 -8 10 -22 21 -29 23 -12 4 -12 7 0 21
19 23 41 21 41 -3 0 -13 7 -20 18 -20 25 0 34 11 21 26 -7 9 -2 14 20 19 17 4
34 11 37 17 4 6 9 7 13 1 3 -6 13 -13 21 -16z m137 -3 c-3 -3 -12 -4 -19 -1
-8 3 -5 6 6 6 11 1 17 -2 13 -5z m-457 -8 c0 -3 -4 -8 -10 -11 -5 -3 -10 -1
-10 4 0 6 5 11 10 11 6 0 10 -2 10 -4z m116 -31 c19 -14 19 -14 -3 -15 -30 0
-54 10 -47 21 8 13 28 11 50 -6z m224 -65 c26 -26 16 -48 -11 -24 -17 16 -26
44 -14 44 3 0 14 -9 25 -20z m96 -20 c0 -12 -7 -20 -16 -20 -9 0 -16 8 -16 20
0 12 7 20 16 20 9 0 16 -8 16 -20z m-130 -37 c-10 -10 -19 5 -10 18 6 11 8 11
12 0 2 -7 1 -15 -2 -18z m2238 11 c3 -8 2 -12 -4 -9 -6 3 -10 10 -10 16 0 14
7 11 14 -7z m-2264 -34 c0 -5 -7 -10 -15 -10 -8 0 -15 5 -15 10 0 6 7 10 15
10 8 0 15 -4 15 -10z m260 -30 c0 -5 -5 -10 -11 -10 -5 0 -7 5 -4 10 3 6 8 10
11 10 2 0 4 -4 4 -10z m147 -26 c-3 -3 -12 -4 -19 -1 -8 3 -5 6 6 6 11 1 17
-2 13 -5z m-627 -24 c0 -11 -4 -20 -10 -20 -5 0 -10 9 -10 20 0 11 5 20 10 20
6 0 10 -9 10 -20z m545 2 c-3 -3 -11 0 -18 7 -9 10 -8 11 6 5 10 -3 15 -9 12
-12z m-125 -16 c0 -3 -4 -8 -10 -11 -5 -3 -10 -1 -10 4 0 6 5 11 10 11 6 0 10
-2 10 -4z m-180 -26 c0 -5 11 -10 25 -10 22 0 24 -2 13 -24 -6 -14 -17 -27
-24 -30 -16 -6 -19 10 -4 19 17 10 11 25 -10 25 -11 0 -20 7 -20 15 0 8 5 15
10 15 6 0 10 -4 10 -10z m-11 -29 c9 -6 10 -11 2 -15 -13 -8 -31 1 -31 15 0
11 11 11 29 0z m395 -12 c-3 -5 -10 -7 -15 -3 -5 3 -7 10 -3 15 3 5 10 7 15 3
5 -3 7 -10 3 -15z m-224 -19 c0 -5 -9 -10 -20 -10 -11 0 -20 5 -20 10 0 6 9
10 20 10 11 0 20 -4 20 -10z m-90 -40 c24 -15 7 -18 -20 -3 -14 7 -18 13 -10
13 8 0 22 -4 30 -10z m83 -7 c-7 -2 -19 -2 -25 0 -7 3 -2 5 12 5 14 0 19 -2
13 -5z m77 -23 c-20 -13 -50 -13 -50 0 0 6 15 10 33 10 24 0 28 -3 17 -10z
m-145 -40 c3 -5 -1 -10 -10 -10 -9 0 -13 5 -10 10 3 6 8 10 10 10 2 0 7 -4 10
-10z m42 -6 c-3 -3 -12 -4 -19 -1 -8 3 -5 6 6 6 11 1 17 -2 13 -5z m250 0 c-3
-3 -12 -4 -19 -1 -8 3 -5 6 6 6 11 1 17 -2 13 -5z m-358 -21 c-1 -10 -5 -29
-9 -43 -7 -21 -8 -19 -9 18 -1 23 4 42 9 42 6 0 10 -8 9 -17z m43 -18 c0 -5
-5 -11 -11 -13 -6 -2 -11 4 -11 13 0 9 5 15 11 13 6 -2 11 -8 11 -13z m-207
-14 c3 -5 1 -12 -5 -16 -5 -3 -10 1 -10 9 0 18 6 21 15 7z m305 -21 c0 -5 -4
-10 -10 -10 -5 0 -10 5 -10 10 0 6 5 10 10 10 6 0 10 -4 10 -10z m133 3 c-7
-2 -19 -2 -25 0 -7 3 -2 5 12 5 14 0 19 -2 13 -5z m-233 -23 c0 -5 -4 -10 -9
-10 -6 0 -13 5 -16 10 -3 6 1 10 9 10 9 0 16 -4 16 -10z m1900 -5 c0 -8 -7
-15 -15 -15 -16 0 -20 12 -8 23 11 12 23 8 23 -8z m-1820 -55 c0 -5 -5 -10
-11 -10 -5 0 -7 5 -4 10 3 6 8 10 11 10 2 0 4 -4 4 -10z m133 -7 c-7 -2 -19
-2 -25 0 -7 3 -2 5 12 5 14 0 19 -2 13 -5z m-433 -33 c0 -16 -4 -30 -10 -30
-5 0 -10 8 -10 18 0 10 -5 23 -12 30 -9 9 -7 12 10 12 18 0 22 -6 22 -30z
m210 -34 c0 -8 4 -16 9 -18 4 -1 5 -12 0 -23 -8 -19 -8 -19 -15 3 -3 12 -13
22 -20 22 -8 0 -15 -10 -15 -22 -1 -17 -3 -18 -6 -6 -2 9 1 26 7 37 12 24 40
28 40 7z m125 -6 c3 -5 -3 -10 -14 -10 -12 0 -21 5 -21 10 0 6 6 10 14 10 8 0
18 -4 21 -10z m-215 -105 c0 -8 -6 -15 -14 -15 -20 0 -29 17 -14 23 22 9 28 7
28 -8z m140 0 c0 -8 -7 -15 -15 -15 -8 0 -15 7 -15 15 0 8 7 15 15 15 8 0 15
-7 15 -15z m63 -10 c-3 -9 -8 -14 -10 -11 -3 3 -2 9 2 15 9 16 15 13 8 -4z
m117 -40 c-7 -8 -19 -15 -27 -15 -11 0 -11 3 -1 15 18 20 45 21 28 0z m-200
-25 c0 -5 -2 -10 -4 -10 -3 0 -8 5 -11 10 -3 6 -1 10 4 10 6 0 11 -4 11 -10z
m75 -18 c-2 -3 -16 -1 -32 2 -20 6 -23 10 -13 16 12 8 54 -9 45 -18z m-60 -42
c3 -5 1 -10 -4 -10 -6 0 -11 5 -11 10 0 6 2 10 4 10 3 0 8 -4 11 -10z m-39
-16 c18 7 18 6 2 -10 -15 -15 -18 -15 -32 -2 -8 9 -12 18 -9 22 4 3 10 1 14
-5 4 -7 15 -9 25 -5z m120 9 c-16 -4 -18 -11 -13 -47 5 -33 3 -43 -8 -43 -11
0 -15 12 -15 43 0 42 9 53 40 52 9 0 7 -2 -4 -5z m84 -64 c0 -14 -17 -10 -23
5 -4 10 -1 13 9 9 7 -3 14 -9 14 -14z m-30 -49 c0 -5 -4 -10 -10 -10 -5 0 -10
5 -10 10 0 6 5 10 10 10 6 0 10 -4 10 -10z m65 -60 c3 -5 -1 -10 -9 -10 -9 0
-16 5 -16 10 0 6 4 10 9 10 6 0 13 -4 16 -10z m325 -270 c0 -5 -2 -10 -4 -10
-3 0 -8 5 -11 10 -3 6 -1 10 4 10 6 0 11 -4 11 -10z"/>
<path d="M3620 4070 c0 -5 4 -10 9 -10 6 0 13 5 16 10 3 6 -1 10 -9 10 -9 0
-16 -4 -16 -10z"/>
<path d="M4600 8510 c0 -5 5 -10 10 -10 6 0 10 5 10 10 0 6 -4 10 -10 10 -5 0
-10 -4 -10 -10z"/>
<path d="M3710 7585 c0 -8 5 -15 10 -15 6 0 10 7 10 15 0 8 -4 15 -10 15 -5 0
-10 -7 -10 -15z"/>
<path d="M3360 7140 c0 -5 10 -10 23 -10 18 0 19 2 7 10 -19 13 -30 13 -30 0z"/>
<path d="M3350 7100 c-8 -5 -11 -12 -7 -16 4 -4 15 0 24 9 18 18 8 23 -17 7z"/>
<path d="M4711 6464 c0 -11 3 -14 6 -6 3 7 2 16 -1 19 -3 4 -6 -2 -5 -13z"/>
<path d="M2734 6276 c-4 -10 -2 -22 4 -28 8 -8 13 -7 18 6 4 10 2 22 -4 28 -8
8 -13 7 -18 -6z"/>
<path d="M6668 6253 c7 -3 16 -2 19 1 4 3 -2 6 -13 5 -11 0 -14 -3 -6 -6z"/>
<path d="M2423 5824 c-15 -16 -16 -24 -4 -24 8 0 24 30 19 35 -2 2 -9 -3 -15
-11z"/>
<path d="M6161 5676 c12 -10 59 -15 59 -6 0 5 -14 10 -32 10 -17 0 -29 -2 -27
-4z"/>
<path d="M6150 5630 c-20 -12 -5 -24 16 -12 9 5 12 12 7 15 -5 3 -15 2 -23 -3z"/>
<path d="M7021 5541 c-12 -8 -12 -11 1 -25 14 -13 16 -12 16 10 0 13 -1 24 -2
24 0 0 -7 -4 -15 -9z"/>
<path d="M5928 5343 c7 -3 16 -2 19 1 4 3 -2 6 -13 5 -11 0 -14 -3 -6 -6z"/>
<path d="M6913 5303 c-18 -7 -16 -23 2 -23 8 0 15 7 15 15 0 8 -1 15 -2 14 -2
0 -9 -3 -15 -6z"/>
<path d="M3996 5263 c-6 -14 -5 -15 5 -6 7 7 10 15 7 18 -3 3 -9 -2 -12 -12z"/>
<path d="M3840 5010 c0 -5 5 -10 10 -10 6 0 10 5 10 10 0 6 -4 10 -10 10 -5 0
-10 -4 -10 -10z"/>
<path d="M2810 4941 c0 -5 5 -13 10 -16 6 -3 10 -2 10 4 0 5 -4 13 -10 16 -5
3 -10 2 -10 -4z"/>
<path d="M3806 4941 c-4 -5 -2 -12 3 -15 5 -4 12 -2 15 3 4 5 2 12 -3 15 -5 4
-12 2 -15 -3z"/>
<path d="M6641 4864 c0 -11 3 -14 6 -6 3 7 2 16 -1 19 -3 4 -6 -2 -5 -13z"/>
<path d="M2900 4800 c-9 -6 -10 -10 -3 -10 6 0 15 5 18 10 8 12 4 12 -15 0z"/>
<path d="M2925 4770 c-3 -5 -1 -10 4 -10 6 0 11 5 11 10 0 6 -2 10 -4 10 -3 0
-8 -4 -11 -10z"/>
<path d="M3340 4519 c0 -5 5 -7 10 -4 6 3 10 8 10 11 0 2 -4 4 -10 4 -5 0 -10
-5 -10 -11z"/>
<path d="M3321 4444 c0 -11 3 -14 6 -6 3 7 2 16 -1 19 -3 4 -6 -2 -5 -13z"/>
<path d="M5185 4440 c-3 -5 -1 -10 4 -10 6 0 11 5 11 10 0 6 -2 10 -4 10 -3 0
-8 -4 -11 -10z"/>
<path d="M3376 4421 c-16 -17 -16 -19 4 -24 11 -3 17 -1 14 4 -3 5 3 12 12 16
10 4 19 2 22 -5 2 -7 10 -12 17 -12 7 0 15 -5 17 -12 2 -6 10 -8 16 -4 9 5 8
11 -3 23 -9 8 -19 13 -22 10 -3 -3 -12 0 -20 8 -19 20 -37 19 -57 -4z"/>
<path d="M3525 4431 c-3 -5 -1 -12 5 -16 12 -7 30 2 30 16 0 12 -27 12 -35 0z"/>
<path d="M3620 4385 l-25 -13 30 -12 30 -11 -27 -21 c-32 -23 -36 -38 -9 -38
18 0 23 9 41 78 9 36 0 40 -40 17z"/>
<path d="M3345 4370 c3 -5 8 -10 11 -10 2 0 4 5 4 10 0 6 -5 10 -11 10 -5 0
-7 -4 -4 -10z"/>
<path d="M3252 4358 c6 -18 28 -21 28 -4 0 9 -7 16 -16 16 -9 0 -14 -5 -12
-12z"/>
<path d="M3425 4361 c-3 -5 -1 -12 5 -16 5 -3 10 1 10 9 0 18 -6 21 -15 7z"/>
<path d="M3560 4360 c0 -5 5 -10 10 -10 6 0 10 5 10 10 0 6 -4 10 -10 10 -5 0
-10 -4 -10 -10z"/>
<path d="M3512 4330 c0 -19 2 -27 5 -17 2 9 2 25 0 35 -3 9 -5 1 -5 -18z"/>
<path d="M3566 4305 c-27 -25 -35 -50 -14 -43 12 4 55 68 45 68 -2 0 -16 -11
-31 -25z"/>
<path d="M3165 4310 c3 -5 8 -10 11 -10 2 0 4 5 4 10 0 6 -5 10 -11 10 -5 0
-7 -4 -4 -10z"/>
<path d="M3460 4250 c-12 -8 -9 -10 13 -10 16 0 26 4 22 10 -8 12 -16 12 -35
0z"/>
<path d="M3480 4201 c0 -5 -14 -14 -31 -21 -20 -9 -27 -16 -20 -23 6 -6 20 -2
40 14 31 25 39 39 21 39 -5 0 -10 -4 -10 -9z"/>
<path d="M3248 4193 c6 -2 18 -2 25 0 6 3 1 5 -13 5 -14 0 -19 -2 -12 -5z"/>
<path d="M3310 4180 c0 -5 5 -10 10 -10 6 0 10 5 10 10 0 6 -4 10 -10 10 -5 0
-10 -4 -10 -10z"/>
<path d="M3248 4073 c7 -3 16 -2 19 1 4 3 -2 6 -13 5 -11 0 -14 -3 -6 -6z"/>
<path d="M3400 4065 c0 -8 5 -15 10 -15 6 0 10 7 10 15 0 8 -4 15 -10 15 -5 0
-10 -7 -10 -15z"/>
<path d="M3340 4025 c-11 -13 -10 -14 4 -9 9 3 16 10 16 15 0 13 -6 11 -20 -6z"/>
<path d="M3250 3996 c0 -10 28 -13 41 -5 10 6 7 9 -13 9 -16 0 -28 -2 -28 -4z"/>
<path d="M3520 3980 c0 -19 3 -21 12 -12 9 9 9 15 0 24 -9 9 -12 7 -12 -12z"/>
<path d="M3440 3976 c0 -9 30 -14 35 -6 4 6 -3 10 -14 10 -12 0 -21 -2 -21 -4z"/>
<path d="M3246 3935 c-3 -8 -1 -15 4 -15 6 0 10 7 10 15 0 8 -2 15 -4 15 -2 0
-6 -7 -10 -15z"/>
<path d="M3350 3930 c-12 -8 -9 -10 13 -10 16 0 26 4 22 10 -8 12 -16 12 -35
0z"/>
<path d="M3514 3918 c-4 -7 -3 -8 4 -4 6 4 20 1 31 -6 11 -7 24 -9 28 -5 9 10
-16 27 -39 27 -9 0 -20 -5 -24 -12z"/>
<path d="M3460 3890 c0 -5 4 -10 9 -10 6 0 13 5 16 10 3 6 -1 10 -9 10 -9 0
-16 -4 -16 -10z"/>
<path d="M3350 3829 c0 -5 5 -7 10 -4 6 3 10 8 10 11 0 2 -4 4 -10 4 -5 0 -10
-5 -10 -11z"/>
<path d="M3360 3779 c0 -5 5 -7 10 -4 6 3 10 8 10 11 0 2 -4 4 -10 4 -5 0 -10
-5 -10 -11z"/>
<path d="M6025 3760 c4 -6 11 -8 16 -5 14 9 11 15 -7 15 -8 0 -12 -5 -9 -10z"/>
<path d="M3520 3750 c0 -5 5 -10 10 -10 6 0 10 5 10 10 0 6 -4 10 -10 10 -5 0
-10 -4 -10 -10z"/>
<path d="M3585 3750 c3 -5 8 -10 11 -10 2 0 4 5 4 10 0 6 -5 10 -11 10 -5 0
-7 -4 -4 -10z"/>
<path d="M3475 3740 c-3 -5 -1 -10 4 -10 6 0 11 5 11 10 0 6 -2 10 -4 10 -3 0
-8 -4 -11 -10z"/>
<path d="M3390 3721 c0 -5 5 -13 10 -16 6 -3 10 -2 10 4 0 5 -4 13 -10 16 -5
3 -10 2 -10 -4z"/>
<path d="M3360 3680 c0 -5 7 -7 15 -4 8 4 15 8 15 10 0 2 -7 4 -15 4 -8 0 -15
-4 -15 -10z"/>
<path d="M3435 3680 c-44 -8 -44 -10 0 -14 17 -1 39 3 50 11 21 14 15 15 -50
3z"/>
<path d="M2850 3670 c0 -6 7 -10 15 -10 8 0 15 2 15 4 0 2 -7 6 -15 10 -8 3
-15 1 -15 -4z"/>
<path d="M3120 3660 c0 -5 5 -10 11 -10 5 0 7 5 4 10 -3 6 -8 10 -11 10 -2 0
-4 -4 -4 -10z"/>
<path d="M3710 3657 c0 -8 7 -18 16 -21 11 -4 14 -1 12 11 -4 21 -28 30 -28
10z"/>
<path d="M3653 3610 c1 -12 7 -20 17 -18 8 1 21 -1 28 -6 24 -15 25 3 1 23
-31 26 -48 26 -46 1z"/>
<path d="M3362 3590 c0 -14 2 -19 5 -12 2 6 2 18 0 25 -3 6 -5 1 -5 -13z"/>
<path d="M3435 3579 c-4 -11 -4 -23 -1 -26 3 -4 6 -1 6 7 0 9 3 10 14 1 10 -9
15 -8 19 4 4 9 -1 19 -13 25 -15 8 -20 6 -25 -11z"/>
<path d="M3401 3554 c0 -11 3 -14 6 -6 3 7 2 16 -1 19 -3 4 -6 -2 -5 -13z"/>
<path d="M3000 3505 c0 -2 10 -10 23 -16 20 -11 21 -11 8 4 -13 16 -31 23 -31
12z"/>
<path d="M3455 3470 c-3 -5 1 -10 9 -10 9 0 16 5 16 10 0 6 -4 10 -9 10 -6 0
-13 -4 -16 -10z"/>
<path d="M3490 3402 c0 -21 7 -47 16 -58 15 -18 15 -18 10 6 -3 14 -6 40 -6
58 0 17 -4 32 -10 32 -5 0 -10 -17 -10 -38z"/>
<path d="M3145 3410 c3 -5 11 -10 16 -10 6 0 7 5 4 10 -3 6 -11 10 -16 10 -6
0 -7 -4 -4 -10z"/>
<path d="M3235 3390 c4 -6 11 -8 16 -5 14 9 11 15 -7 15 -8 0 -12 -5 -9 -10z"/>
<path d="M3342 3361 c-7 -4 -25 -6 -39 -3 l-26 5 22 -22 c25 -25 31 -26 31 -6
0 8 7 15 15 15 8 0 15 5 15 10 0 12 -1 12 -18 1z"/>
<path d="M3431 3350 c1 -24 15 -55 21 -44 2 5 -1 20 -8 34 -8 14 -13 18 -13
10z"/>
<path d="M3540 3349 c0 -5 5 -7 10 -4 6 3 10 8 10 11 0 2 -4 4 -10 4 -5 0 -10
-5 -10 -11z"/>
<path d="M3535 3320 c-3 -5 -1 -10 5 -10 6 0 16 -12 23 -27 14 -32 36 -52 57
-52 12 0 12 2 -2 13 -21 15 -23 33 -6 38 10 4 9 8 -2 20 -8 8 -21 13 -28 10
-7 -2 -19 1 -26 8 -10 7 -16 8 -21 0z"/>
<path d="M3480 3300 c0 -5 9 -14 19 -19 16 -9 18 -8 14 9 -5 20 -33 29 -33 10z"/>
<path d="M3400 3266 c0 -24 17 -28 23 -6 3 13 0 20 -9 20 -8 0 -14 -6 -14 -14z"/>
<path d="M3391 3206 c2 -2 15 -9 29 -15 24 -11 24 -11 6 3 -16 13 -49 24 -35
12z"/>
<path d="M3515 3120 c22 -24 32 -25 32 -5 0 9 -6 14 -14 11 -7 -3 -13 -1 -13
4 0 6 -5 10 -12 10 -6 0 -3 -9 7 -20z"/>
<path d="M3585 3070 c-3 -5 4 -11 15 -15 11 -3 20 -14 21 -23 0 -11 3 -12 6
-4 2 6 11 12 19 12 9 0 13 -4 9 -9 -3 -5 -1 -12 4 -15 5 -3 11 3 14 14 3 11 1
23 -5 26 -20 12 -78 22 -83 14z"/>
<path d="M3694 2982 c11 -12 19 -13 27 -5 7 7 3 12 -16 15 -25 5 -25 4 -11
-10z"/>
</g>
</svg>
