<?xml version="1.0" standalone="no"?>
<!DOCTYPE svg PUBLIC "-//W3C//DTD SVG 20010904//EN"
 "http://www.w3.org/TR/2001/REC-SVG-20010904/DTD/svg10.dtd">
<svg version="1.0" xmlns="http://www.w3.org/2000/svg"
 width="54.000000pt" height="54.000000pt" viewBox="0 0 54.000000 54.000000"
 preserveAspectRatio="xMidYMid meet">

<g transform="translate(0.000000,54.000000) scale(0.100000,-0.100000)"
fill="#6A5ACD" stroke="none">
<path d="M167 512 c-22 -24 -22 -56 0 -73 14 -12 5 -15 -68 -19 l-84 -5 -3
-68 c-3 -62 -1 -69 18 -74 19 -5 20 -13 20 -112 0 -159 -11 -151 220 -151 231
0 220 -8 220 151 0 99 1 107 20 112 19 5 21 12 18 74 l-3 68 -84 5 c-73 4 -82
7 -68 19 35 28 8 91 -40 91 -21 0 -53 -29 -53 -48 0 -7 -4 -12 -10 -12 -5 0
-10 6 -10 13 0 20 -33 47 -57 47 -11 0 -27 -8 -36 -18z m61 -15 c16 -19 26
-67 14 -67 -21 0 -61 23 -67 38 -12 31 32 55 53 29z m131 -1 c15 -18 5 -41
-25 -55 -39 -17 -47 -14 -39 16 12 51 40 68 64 39z m146 -151 l0 -50 -235 0
-235 0 -3 39 c-6 70 -18 67 240 64 l233 -3 0 -50z m-245 -195 l0 -121 -87 3
-88 3 -3 118 -3 117 91 0 90 0 0 -120z m200 6 c0 -132 5 -126 -106 -126 l-74
0 0 120 0 120 90 0 90 0 0 -114z"/>
</g>
</svg>
