<?xml version="1.0" standalone="no"?>
<!DOCTYPE svg PUBLIC "-//W3C//DTD SVG 20010904//EN"
 "http://www.w3.org/TR/2001/REC-SVG-20010904/DTD/svg10.dtd">
<svg version="1.0" xmlns="http://www.w3.org/2000/svg"
 width="52.000000pt" height="52.000000pt" viewBox="0 0 52.000000 52.000000"
 preserveAspectRatio="xMidYMid meet">

<g transform="translate(0.000000,52.000000) scale(0.100000,-0.100000)"
fill="#6A5ACD" stroke="none">
<path d="M185 491 c-111 -29 -179 -117 -179 -231 0 -111 63 -194 171 -226 144
-42 293 68 293 216 0 66 -16 64 -24 -2 -24 -182 -226 -259 -351 -134 -123 124
-52 330 122 353 33 4 72 -5 136 -32 12 -5 17 -3 17 9 0 33 -121 64 -185 47z"/>
<path d="M390 365 c-63 -63 -119 -115 -125 -115 -6 0 -29 18 -50 40 -36 37
-65 51 -65 32 0 -11 104 -112 115 -112 6 0 66 56 135 125 83 83 121 128 114
135 -6 6 -48 -29 -124 -105z"/>
</g>
</svg>
