<?xml version="1.0" standalone="no"?>
<!DOCTYPE svg PUBLIC "-//W3C//DTD SVG 20010904//EN"
 "http://www.w3.org/TR/2001/REC-SVG-20010904/DTD/svg10.dtd">
<svg version="1.0" xmlns="http://www.w3.org/2000/svg"
 width="487.000000pt" height="510.000000pt" viewBox="0 0 487.000000 510.000000"
 preserveAspectRatio="xMidYMid meet">

<g transform="translate(0.000000,510.000000) scale(0.100000,-0.100000)"
fill="#6A5ACD" stroke="none">
<path d="M2325 4610 c-19 -8 -19 -9 3 -9 12 -1 22 4 22 9 0 6 -1 10 -2 9 -2 0
-12 -4 -23 -9z"/>
<path d="M2360 4592 c0 -4 5 -13 12 -20 9 -9 8 -12 -7 -13 -11 -1 -24 0 -30 1
-42 8 -88 9 -76 1 11 -7 10 -11 -5 -19 -15 -8 -16 -13 -5 -26 9 -11 10 -16 2
-16 -6 0 -11 4 -11 9 0 6 -12 6 -31 1 -35 -10 -60 -3 -38 11 7 4 11 10 8 14
-8 7 -43 -25 -58 -53 -12 -22 -11 -23 9 -12 12 6 24 9 28 6 3 -3 0 -6 -6 -6
-7 0 -12 -4 -12 -10 0 -5 7 -10 15 -10 8 0 14 -6 13 -12 -2 -7 3 -12 10 -10
36 7 92 9 92 3 0 -4 -6 -13 -12 -20 -11 -11 -10 -12 0 -6 11 6 12 3 3 -14 -7
-11 -14 -21 -17 -21 -3 0 -3 4 1 9 11 18 -16 23 -35 6 -17 -15 -18 -15 -22 0
-3 15 -6 15 -30 -4 -32 -25 -39 -26 -31 -5 6 15 4 15 -18 0 -24 -15 -33 -26
-87 -97 -23 -31 -29 -34 -41 -22 -7 8 -19 12 -27 9 -25 -10 -18 60 9 80 15 11
16 15 5 11 -11 -4 -18 -1 -19 6 0 13 -51 -89 -55 -112 -2 -8 -8 -17 -14 -21
-6 -4 -10 -11 -9 -16 4 -24 -3 -34 -25 -34 -30 0 -40 -14 -32 -45 4 -15 15
-25 29 -27 12 -2 22 -7 23 -13 2 -23 17 -45 31 -45 8 0 11 -4 8 -10 -3 -5 -3
-10 2 -10 4 0 31 32 58 71 52 73 88 106 127 115 43 10 79 10 84 2 3 -5 12 -4
19 2 9 7 16 6 24 -4 7 -8 24 -14 39 -14 15 0 46 -4 68 -10 27 -6 47 -6 59 1
12 6 20 6 25 -3 4 -7 21 -12 36 -12 32 0 77 -26 68 -39 -3 -5 0 -17 5 -27 7
-13 7 -22 -1 -30 -8 -8 -6 -15 6 -27 9 -9 16 -21 16 -27 0 -7 4 -7 13 0 10 8
13 6 14 -8 1 -14 -11 -24 -43 -36 -24 -9 -44 -21 -44 -25 0 -5 -6 -9 -13 -9
-8 0 -19 -11 -25 -25 -6 -14 -18 -25 -27 -25 -8 0 -15 -9 -15 -20 0 -11 -7
-23 -15 -26 -13 -5 -13 -8 0 -21 17 -16 20 -33 6 -33 -5 0 -7 -9 -4 -20 3 -11
0 -26 -6 -34 -9 -10 -8 -15 3 -19 10 -4 13 -1 9 9 -3 10 2 14 18 14 17 0 20
-3 11 -9 -18 -11 35 -33 67 -28 31 5 64 -27 56 -54 -4 -10 -12 -19 -18 -20 -7
0 -20 -2 -29 -4 -10 -2 -16 2 -15 8 1 6 -7 13 -17 15 -14 3 -17 0 -13 -12 4
-9 2 -16 -2 -16 -5 0 -11 5 -13 12 -4 12 -59 12 -141 -1 -5 0 -6 -5 -3 -10 7
-11 -45 -1 -62 12 -9 7 -19 4 -35 -12 -26 -23 -47 -27 -47 -8 -1 7 -6 5 -14
-6 -15 -19 -13 -64 3 -80 6 -6 7 -17 2 -26 -5 -9 -12 -35 -16 -57 -3 -23 -16
-52 -27 -64 -12 -12 -30 -53 -42 -90 -12 -37 -30 -75 -40 -85 -27 -28 -39 -67
-24 -77 7 -4 20 -8 29 -8 10 0 19 -12 23 -30 4 -20 11 -30 24 -30 10 0 26 -13
35 -30 10 -16 22 -30 28 -30 5 0 9 -6 9 -14 0 -11 -22 -16 -87 -21 -49 -3 -96
-10 -105 -15 -10 -6 -26 -10 -37 -10 -14 0 -18 -5 -14 -21 5 -16 11 -19 34
-14 21 5 32 1 46 -14 9 -12 20 -21 24 -21 4 0 30 -16 59 -35 29 -19 63 -35 76
-35 14 0 24 -6 24 -15 0 -20 -70 -37 -121 -29 l-41 7 18 -29 c23 -37 62 -73
92 -84 12 -5 22 -16 22 -24 0 -8 4 -16 9 -18 4 -1 12 -14 16 -27 5 -17 4 -22
-5 -16 -7 4 -17 1 -22 -6 -7 -11 -11 -11 -15 -1 -7 19 -23 14 -16 -5 5 -15 3
-15 -9 1 -15 19 -16 19 -26 -1 -6 -11 -9 -23 -5 -26 3 -3 -6 -9 -21 -13 -17
-4 -26 -13 -26 -26 0 -11 -5 -16 -10 -13 -6 4 -8 15 -5 25 5 16 -12 32 -39 34
-5 1 -11 7 -14 15 -3 9 0 11 8 6 9 -5 11 -4 6 4 -4 6 -12 9 -17 6 -5 -4 -9 -1
-9 5 0 6 -4 8 -10 5 -5 -3 -10 -11 -10 -16 0 -6 4 -8 9 -5 5 3 11 -1 15 -9 3
-8 1 -15 -5 -15 -6 0 -7 -5 -4 -11 4 -6 10 -8 13 -5 3 3 11 1 19 -6 11 -9 12
-7 7 7 -5 13 -4 16 4 11 7 -4 12 -27 12 -52 0 -44 14 -60 24 -26 4 14 5 13 4
-3 -1 -11 13 -49 30 -85 17 -36 27 -66 21 -68 -5 -2 -9 -11 -9 -19 0 -9 6 -13
14 -10 7 3 19 0 25 -6 8 -8 11 -7 11 6 0 9 4 17 9 17 14 0 26 -22 23 -42 -2
-11 6 -20 22 -24 30 -7 34 -20 7 -20 -11 0 -17 5 -14 10 4 5 -1 7 -11 3 -9 -4
-14 -3 -11 2 3 5 1 12 -5 16 -5 3 -10 -1 -10 -9 0 -26 37 -38 96 -30 47 5 54
4 54 -10 0 -10 4 -15 9 -12 5 3 12 -1 15 -9 4 -13 2 -14 -14 -5 -11 6 -20 15
-20 20 0 6 -12 10 -27 10 -26 0 -26 0 -7 -21 17 -19 72 -49 90 -49 3 0 4 11 2
25 -3 13 -1 22 3 19 12 -7 12 -54 0 -54 -24 0 -78 27 -94 47 -20 25 -86 33
-88 11 0 -7 -4 -4 -8 7 -5 11 -14 20 -22 20 -7 0 -32 36 -55 80 -44 84 -51
100 -34 90 6 -3 10 -2 10 4 0 6 -8 15 -19 20 -29 16 -56 62 -41 71 8 5 10 15
5 26 -8 18 -8 18 -12 2 -9 -36 -29 -8 -38 52 0 3 -4 10 -8 17 -4 6 -5 33 -3
59 3 32 0 51 -10 61 -8 8 -14 22 -14 31 0 9 -13 49 -29 89 -16 39 -42 132 -58
205 -24 113 -28 152 -25 258 1 69 9 157 17 195 7 39 16 111 20 161 8 122 32
269 50 305 9 17 11 29 5 29 -5 0 -10 6 -10 14 0 16 -34 -3 -539 -294 -167 -96
-325 -194 -351 -217 -57 -51 -102 -118 -132 -199 -22 -59 -23 -62 -26 -779 -2
-474 1 -742 8 -785 14 -85 59 -176 119 -242 48 -52 83 -75 331 -219 378 -218
450 -259 457 -259 4 0 52 45 108 99 84 83 107 100 140 106 22 3 83 19 135 35
52 16 122 33 154 39 33 6 79 20 103 32 49 24 78 19 70 -10 -4 -18 3 -20 72
-26 124 -10 148 -15 168 -37 18 -20 18 -21 -3 -8 -14 9 -26 10 -38 3 -12 -6
-33 -6 -64 2 -41 11 -48 10 -66 -6 -13 -13 -23 -15 -31 -9 -11 9 -75 -16 -99
-40 -5 -5 -24 -10 -41 -10 -48 0 -111 -35 -129 -71 -20 -41 -21 -83 -2 -76 16
6 136 -29 150 -43 11 -11 -20 -39 -45 -40 -19 0 -52 -34 -73 -75 l-16 -30 0
28 c0 31 -29 38 -50 12 -11 -13 -10 -14 5 -9 15 6 16 4 5 -15 -6 -12 -9 -35
-5 -51 3 -16 2 -31 -4 -35 -18 -10 -13 -21 15 -34 26 -12 26 -11 20 24 -4 22
-3 35 4 35 5 0 10 -7 10 -15 0 -9 9 -15 24 -15 28 0 44 -19 26 -30 -7 -4 -21
-5 -31 -3 -40 11 -16 -15 34 -37 71 -30 235 -40 304 -17 56 19 182 89 828 461
528 305 559 328 619 448 56 111 57 133 54 923 -3 716 -4 720 -26 779 -30 81
-75 148 -132 199 -26 23 -172 113 -324 201 -152 87 -279 163 -282 167 -3 5 0
9 6 9 7 0 10 7 7 15 -4 8 -2 17 4 21 6 3 7 13 4 23 -4 9 -13 50 -21 91 -8 41
-23 83 -33 95 -12 13 -20 42 -24 84 -5 54 -10 68 -39 98 -38 41 -100 72 -141
73 -20 0 -41 12 -68 39 -29 30 -49 41 -83 46 -25 4 -51 13 -57 21 -6 8 -20 14
-31 14 -21 0 -36 10 -76 54 -15 15 -36 32 -47 37 -11 5 -33 19 -48 31 -22 18
-41 23 -93 23 -43 0 -67 -4 -73 -13 -9 -16 -8 -16 -62 3 -46 17 -69 19 -69 7z
m-25 -53 c16 -7 14 -9 -12 -6 -26 3 -30 1 -22 -10 9 -10 8 -13 -3 -13 -22 0
-29 12 -17 27 13 15 26 16 54 2z m30 -99 c-22 -24 -35 -26 -35 -4 0 10 6 14
15 11 8 -4 17 -2 20 3 4 6 9 10 12 10 3 0 -2 -9 -12 -20z m-45 -8 c0 -5 -7
-17 -16 -28 -8 -10 -14 -14 -11 -9 2 6 7 18 10 28 7 17 17 23 17 9z m165 -12
c3 -5 -8 -18 -25 -30 -17 -12 -30 -16 -30 -10 0 7 -7 10 -17 6 -15 -5 -15 -4
1 9 14 11 16 15 5 15 -11 0 -12 2 0 9 17 11 60 11 66 1z m10 -50 c-9 -15 -77
-41 -95 -37 -8 3 -1 8 17 12 18 4 38 14 44 21 13 16 43 19 34 4z m225 -400 c0
-5 -4 -10 -10 -10 -5 0 -10 5 -10 10 0 6 5 10 10 10 6 0 10 -4 10 -10z m-26
-45 c-4 -8 -8 -15 -10 -15 -2 0 -4 7 -4 15 0 8 4 15 10 15 5 0 7 -7 4 -15z m6
-102 c0 -7 5 -13 10 -13 6 0 10 -4 10 -10 0 -15 -16 -12 -34 6 -20 19 -20 31
-1 31 8 0 15 -6 15 -14z m-76 -41 c3 -5 -1 -9 -9 -9 -8 0 -12 4 -9 9 3 4 7 8
9 8 2 0 6 -4 9 -8z m71 -42 c-9 -14 4 -32 18 -23 9 6 39 7 77 4 6 -1 8 -12 4
-26 -5 -20 -2 -25 12 -26 18 -1 18 -2 1 -6 -14 -4 -16 -8 -6 -19 9 -12 9 -13
-3 -9 -8 3 -21 17 -28 30 -12 22 -50 42 -50 25 0 -4 -11 -5 -25 -2 -19 3 -23
7 -15 17 8 10 8 15 -1 20 -8 6 -7 10 2 16 18 11 22 11 14 -1z m-65 -20 c0 -5
-5 -10 -11 -10 -5 0 -7 5 -4 10 3 6 8 10 11 10 2 0 4 -4 4 -10z m244 -35 c4
-11 0 -14 -17 -11 -12 3 -26 5 -32 5 -13 2 16 21 31 21 7 0 14 -7 18 -15z m10
-56 c-3 -5 -14 -4 -26 2 -16 9 -18 13 -7 20 15 9 42 -8 33 -22z m-478 -60 c3
-5 -2 -12 -10 -15 -9 -3 -13 -11 -9 -17 4 -7 -12 -8 -51 -4 -67 7 -78 13 -53
31 19 15 115 18 123 5z m714 -102 c0 -2 -9 -12 -20 -22 -24 -21 -27 -14 -4 9
15 15 24 20 24 13z m-760 -22 c0 -19 -9 -19 -34 0 -19 14 -19 15 7 15 17 0 27
-5 27 -15z m-55 -85 c4 -6 12 -10 18 -9 28 3 48 -2 42 -11 -3 -5 2 -9 12 -8
37 3 59 -2 45 -10 -9 -7 -7 -13 9 -28 17 -14 21 -15 17 -4 -4 11 1 16 13 17
19 2 19 1 0 -25 -13 -20 -16 -33 -10 -49 5 -15 5 -23 -2 -23 -6 0 -9 -6 -6
-14 6 -15 -26 -33 -60 -34 -22 -1 -28 11 -24 45 2 16 -16 26 -24 13 -10 -16
-28 -11 -21 6 4 10 -1 22 -11 31 -10 8 -11 11 -3 7 13 -7 13 -5 1 9 -12 15
-11 17 4 17 10 0 15 3 11 8 -4 4 -13 7 -19 7 -7 0 -12 10 -13 21 -1 12 -4 26
-8 33 -4 6 -1 11 8 11 8 0 18 -5 21 -10z m695 -138 c-11 -20 -20 -28 -23 -20
-2 7 -3 0 -1 -15 3 -24 2 -26 -11 -14 -16 17 -9 57 11 57 8 0 14 4 14 10 0 5
-7 7 -15 4 -23 -9 -19 23 7 59 l23 32 6 -40 c5 -29 2 -49 -11 -73z m59 -59 c0
-25 -1 -26 -9 -8 -12 27 -12 35 0 35 6 0 10 -12 9 -27z m-195 -28 c-4 -8 -10
-12 -15 -9 -14 8 -10 24 6 24 9 0 12 -6 9 -15z m-746 -205 c12 0 22 -4 22 -10
0 -11 -78 -14 -104 -4 -32 12 -16 27 22 20 20 -3 47 -6 60 -6z m336 -92 c9
-35 8 -38 -19 -38 -27 0 -31 10 -15 41 14 25 26 24 34 -3z m-164 -200 c0 -4
-8 -12 -17 -17 -10 -6 -14 -11 -9 -11 17 0 -28 -29 -46 -30 -9 0 -18 -3 -21
-7 -2 -5 -2 -2 0 6 2 8 -2 11 -12 8 -8 -4 -17 -2 -20 3 -4 6 -2 10 4 10 6 0 8
7 5 15 -5 11 1 15 17 15 19 0 21 -2 9 -10 -13 -8 -12 -10 3 -10 11 0 21 8 24
18 3 12 14 18 34 17 16 0 29 -3 29 -7z m-114 -83 c7 -5 10 -14 7 -18 -3 -4
-10 -3 -17 2 -7 6 -16 8 -19 4 -4 -3 -7 1 -7 10 0 18 16 19 36 2z m1071 -80
c0 -8 -4 -12 -9 -9 -4 3 -8 9 -8 15 0 5 4 9 8 9 5 0 9 -7 9 -15z m-1190 -1
c-3 -3 -12 -4 -19 -1 -8 3 -5 6 6 6 11 1 17 -2 13 -5z m938 -14 c-10 -11 -20
-18 -23 -15 -3 3 -11 0 -18 -6 -7 -6 -14 -6 -18 -1 -7 12 22 25 35 16 5 -3 12
2 15 10 3 9 11 16 17 16 5 0 2 -9 -8 -20z m-942 -42 c31 -72 36 -88 28 -88 -5
0 -12 12 -16 27 -3 15 -10 30 -15 33 -10 6 -25 60 -17 60 4 0 12 -15 20 -32z
m871 6 c4 -10 1 -14 -6 -12 -15 5 -23 28 -10 28 5 0 13 -7 16 -16z m-30 -10
c3 -8 2 -12 -4 -9 -6 3 -10 10 -10 16 0 14 7 11 14 -7z m-766 -56 c8 13 9 22
2 22 -5 0 -10 5 -10 12 0 6 8 4 19 -6 11 -10 17 -24 14 -32 -4 -10 0 -12 13
-7 12 4 15 3 10 -5 -4 -7 -18 -12 -32 -12 -14 0 -22 -4 -19 -10 3 -5 3 -10 0
-10 -14 0 -36 72 -28 93 6 18 9 13 13 -23 5 -42 6 -44 18 -22z m1105 55 c-9
-3 -10 -10 -3 -23 7 -13 5 -21 -5 -30 -11 -9 -15 -9 -15 -1 0 6 5 11 10 11 7
0 7 6 1 19 -11 19 -5 32 13 30 6 0 6 -3 -1 -6z m-204 -27 c9 -11 7 -13 -11
-12 -13 1 -31 -7 -40 -18 l-17 -21 6 23 c5 21 14 26 42 23 7 -2 10 2 6 8 -9
16 0 14 14 -3z m-82 -38 c-3 -8 -6 -5 -6 6 -1 11 2 17 5 13 3 -3 4 -12 1 -19z
m-738 -61 c1 -5 -3 -5 -9 -2 -5 3 -10 16 -9 28 0 21 1 21 9 2 5 -11 9 -24 9
-28z m1007 31 c4 -7 3 -8 -4 -4 -16 10 -15 -6 1 -24 10 -12 9 -12 -5 -1 -19
14 -24 41 -9 41 6 0 13 -5 17 -12z m-1036 -18 c0 -23 -10 -26 -28 -8 -18 18
-15 28 8 28 13 0 20 -7 20 -20z m510 10 c18 -12 2 -12 -25 0 -13 6 -15 9 -5 9
8 0 22 -4 30 -9z m480 -13 c0 -13 -7 -32 -16 -43 -15 -18 -15 -18 -5 3 6 12
11 31 11 42 0 12 2 21 5 21 3 0 5 -10 5 -23z m35 -27 c3 -5 1 -10 -4 -10 -6 0
-11 5 -11 10 0 6 2 10 4 10 3 0 8 -4 11 -10z m-992 -28 c-8 -2 -12 -10 -9 -17
3 -10 -3 -9 -25 3 -41 24 -40 44 2 22 15 -9 19 -7 19 5 0 13 2 14 14 3 12 -11
12 -13 -1 -16z m974 -10 c-10 -2 -16 -9 -14 -16 7 -17 -10 -43 -20 -32 -4 5
-2 11 5 13 6 3 9 9 6 14 -11 18 4 39 23 32 17 -7 17 -8 0 -11z m-57 -21 c-5
-11 -15 -23 -21 -27 -6 -3 -3 5 6 20 20 30 30 35 15 7z m-30 -44 c0 -2 -10
-12 -22 -23 l-23 -19 19 23 c18 21 26 27 26 19z m40 -20 c0 -7 -4 -6 -10 3 -8
13 -10 12 -10 -4 0 -11 -3 -17 -6 -13 -4 3 -4 13 0 22 6 18 26 11 26 -8z
m-940 -2 c6 -8 9 -19 5 -25 -3 -6 4 -10 17 -11 21 0 21 -1 3 -8 -11 -5 -24 -3
-31 3 -8 7 -8 12 -2 15 6 2 0 12 -13 22 -18 14 -20 19 -8 19 9 0 22 -7 29 -15z
m170 -15 c0 -5 -4 -10 -10 -10 -5 0 -10 5 -10 10 0 6 5 10 10 10 6 0 10 -4 10
-10z m27 -22 c-3 -8 -6 -5 -6 6 -1 11 2 17 5 13 3 -3 4 -12 1 -19z m705 -13
c-6 -34 -12 -32 -12 6 0 16 4 28 9 25 4 -3 6 -17 3 -31z m-538 11 c-21 -15
-30 -14 -19 3 3 6 14 11 23 11 13 0 13 -2 -4 -14z m486 1 c0 -2 -12 -14 -27
-28 l-28 -24 24 28 c23 25 31 32 31 24z m-775 -17 c-17 -7 -17 -9 -2 -9 18 -1
23 -27 8 -49 -7 -11 -9 -10 -14 3 -4 9 -3 13 3 10 6 -3 10 1 10 9 0 19 -11 20
-30 4 -11 -10 -11 -9 0 6 14 18 13 19 -2 13 -10 -3 -20 -1 -24 5 -4 6 -3 8 2
5 6 -3 16 -2 24 4 8 5 22 8 30 8 10 0 8 -3 -5 -9z m69 -40 c17 0 36 4 42 10 6
6 15 6 24 0 12 -8 10 -10 -10 -10 -25 -1 -24 -1 10 -32 27 -23 29 -27 10 -18
-14 7 -32 18 -40 25 -25 20 -64 16 -83 -8 l-18 -22 12 25 c7 14 13 36 12 50 0
22 0 23 4 3 3 -18 11 -23 37 -23z m36 25 c-7 -8 -17 -15 -23 -15 -6 0 -2 7 9
15 25 19 30 19 14 0z m700 5 c0 -5 -7 -7 -15 -4 -8 4 -15 8 -15 10 0 2 7 4 15
4 8 0 15 -4 15 -10z m-7 -37 c-3 -7 -6 -13 -8 -13 -2 0 -5 6 -8 13 -3 8 1 14
8 14 7 0 11 -6 8 -14z m-28 -3 c3 -5 2 -10 -4 -10 -5 0 -13 5 -16 10 -3 6 -2
10 4 10 5 0 13 -4 16 -10z m-657 -65 c-2 -14 -11 -20 -31 -21 -15 -1 -30 3
-34 9 -3 6 -1 7 4 4 6 -4 13 4 15 18 6 28 -1 31 -22 13 -12 -11 -12 -10 -2 3
6 9 8 19 4 23 -4 5 10 0 31 -10 28 -13 37 -23 35 -39z m592 42 c0 -2 -15 -16
-32 -33 l-33 -29 29 33 c28 30 36 37 36 29z m40 -17 c0 -5 -7 -7 -15 -4 -21 8
-19 -13 3 -25 9 -6 12 -11 6 -11 -17 0 -37 27 -29 40 8 13 35 13 35 0z m-287
-15 c4 -8 3 -16 -1 -19 -4 -3 -9 4 -9 15 -2 23 3 25 10 4z m64 -15 c4 -15 9
-17 23 -10 13 7 20 6 24 -7 4 -9 4 -18 1 -21 -3 -3 -5 0 -5 6 0 7 -7 12 -15
12 -8 0 -15 -6 -15 -12 0 -10 -2 -10 -8 0 -5 7 -16 10 -24 7 -16 -6 -32 20
-22 36 10 16 36 9 41 -11z m-377 -11 c0 -5 -4 -9 -10 -9 -5 0 -10 7 -10 16 0
8 5 12 10 9 6 -3 10 -10 10 -16z m50 -23 c0 -3 -7 -3 -15 0 -8 4 -15 13 -15
21 0 12 2 12 15 -1 8 -8 15 -17 15 -20z m518 22 c7 -7 12 -17 12 -22 0 -6 -5
-4 -10 4 -9 13 -11 13 -20 0 -8 -12 -10 -11 -10 8 0 24 10 28 28 10z m-87 -18
c9 13 10 13 6 0 -6 -22 -37 -25 -37 -3 0 15 2 16 10 3 9 -13 11 -13 21 0z m44
-35 c0 -21 -41 -40 -51 -23 -4 7 -3 8 4 4 8 -4 12 0 12 12 0 10 3 22 7 26 11
11 28 0 28 -19z m-522 8 c-7 -2 -19 -2 -25 0 -7 3 -2 5 12 5 14 0 19 -2 13 -5z
m97 -24 c0 -6 -9 -8 -20 -4 -14 5 -20 2 -20 -9 0 -17 -11 -19 -50 -9 -24 6
-23 7 10 19 44 16 80 17 80 3z m40 -43 c-38 -14 -46 -13 -35 3 3 6 21 11 38
10 l32 -1 -35 -12z m185 5 c-6 -6 -33 -6 -65 -2 l-55 9 65 1 c39 1 60 -3 55
-8z m68 -30 c16 -10 25 -21 20 -24 -4 -3 -24 6 -43 19 -40 28 -19 33 23 5z
m-203 -46 c0 -18 -21 -24 -43 -13 -14 7 -15 13 -7 29 9 15 15 17 30 9 11 -6
20 -17 20 -25z m130 10 c0 -9 -7 -18 -16 -22 -18 -7 -39 11 -30 26 11 17 46
13 46 -4z m50 -5 c0 -5 -4 -10 -10 -10 -5 0 -10 5 -10 10 0 6 5 10 10 10 6 0
10 -4 10 -10z m-96 -122 c4 4 6 0 4 -8 -2 -10 3 -14 15 -12 9 2 17 -2 17 -8 0
-5 7 -10 16 -10 8 0 13 -4 9 -9 -3 -5 -1 -12 5 -16 5 -3 10 -2 10 4 0 5 14 3
30 -5 30 -15 39 -37 20 -49 -6 -4 -7 1 -3 11 5 13 3 16 -10 11 -11 -4 -17 -1
-17 7 0 9 -7 12 -19 9 -13 -3 -25 3 -37 21 -23 36 -30 25 -8 -11 20 -32 15
-28 -52 46 -39 44 -43 50 -18 33 17 -12 34 -18 38 -14z m224 -50 c-3 -7 -12
-14 -22 -14 -13 -2 -13 -1 -1 3 8 2 13 9 10 14 -4 5 -1 9 5 9 7 0 10 -6 8 -12z
m-118 -68 c0 -5 -4 -10 -10 -10 -5 0 -10 5 -10 10 0 6 5 10 10 10 6 0 10 -4
10 -10z m30 -14 c0 -2 -7 -7 -16 -10 -8 -3 -12 -2 -9 4 6 10 25 14 25 6z
m-147 -482 c17 -4 25 -10 20 -17 -4 -7 -6 -21 -5 -32 1 -11 -7 -31 -18 -45
l-20 -25 0 36 c0 34 -39 103 -40 70 0 -7 -6 -11 -14 -8 -7 3 -30 -6 -50 -19
-22 -15 -50 -25 -69 -25 -18 1 -40 2 -49 2 -22 0 -24 19 -3 19 8 0 15 4 15 10
0 26 155 48 233 34z m50 -215 c3 -11 3 -18 -1 -15 -3 4 -12 -8 -20 -26 l-15
-33 -7 30 c-4 17 -8 26 -9 21 0 -5 -7 -3 -15 3 -11 9 -26 6 -67 -13 -30 -13
-70 -26 -90 -29 -20 -2 -42 -8 -48 -11 -20 -13 -12 9 14 36 32 35 88 50 196
56 50 2 57 0 62 -19z"/>
<path d="M2762 1969 c2 -6 8 -10 13 -10 5 0 11 4 13 10 2 6 -4 11 -13 11 -9 0
-15 -5 -13 -11z"/>
<path d="M2926 1911 c-4 -7 -5 -15 -2 -18 9 -9 19 4 14 18 -4 11 -6 11 -12 0z"/>
<path d="M2575 1780 c-3 -5 -1 -10 4 -10 6 0 11 5 11 10 0 6 -2 10 -4 10 -3 0
-8 -4 -11 -10z"/>
<path d="M2090 4485 c-11 -13 -10 -14 4 -9 9 3 16 10 16 15 0 13 -6 11 -20 -6z"/>
<path d="M1995 4419 c-4 -6 -5 -12 -2 -15 2 -3 7 2 10 11 7 17 1 20 -8 4z"/>
<path d="M1997 4349 c-5 -19 12 -22 25 -4 11 15 9 22 -6 22 -8 0 -17 -8 -19
-18z"/>
<path d="M2200 4210 c0 -5 5 -10 11 -10 5 0 7 5 4 10 -3 6 -8 10 -11 10 -2 0
-4 -4 -4 -10z"/>
<path d="M1900 3632 c-18 -6 -10 -19 25 -38 41 -22 46 -44 11 -44 -37 0 -73
-17 -85 -39 -10 -17 -7 -19 24 -19 18 0 50 -5 69 -12 31 -10 34 -13 22 -26 -8
-8 -24 -14 -35 -14 -21 0 -28 -14 -13 -24 5 -3 27 -8 50 -12 l40 -6 26 49 c19
39 24 63 24 117 -1 37 -5 69 -10 72 -4 3 -8 -6 -8 -20 0 -31 -13 -33 -42 -6
-12 10 -25 17 -30 14 -4 -3 -8 -2 -8 3 0 8 -41 11 -60 5z"/>
<path d="M1905 3192 c-34 -29 -95 -108 -95 -123 1 -18 50 -78 50 -60 0 10 3
11 14 2 11 -10 17 -7 30 11 21 30 20 44 -1 27 -16 -13 -16 -13 0 11 9 13 17
38 17 55 0 17 7 41 16 53 14 20 12 42 -4 42 -4 -1 -16 -8 -27 -18z"/>
<path d="M2111 2264 c0 -11 3 -14 6 -6 3 7 2 16 -1 19 -3 4 -6 -2 -5 -13z"/>
<path d="M1930 846 c0 -2 7 -7 16 -10 8 -3 12 -2 9 4 -6 10 -25 14 -25 6z"/>
<path d="M2105 814 c-11 -8 -24 -13 -30 -10 -12 4 -36 -19 -28 -28 12 -12 44
-6 50 10 3 8 11 13 18 10 7 -2 15 4 18 15 6 23 -1 24 -28 3z"/>
</g>
</svg>
