<?xml version="1.0" standalone="no"?>
<!DOCTYPE svg PUBLIC "-//W3C//DTD SVG 20010904//EN"
 "http://www.w3.org/TR/2001/REC-SVG-20010904/DTD/svg10.dtd">
<svg version="1.0" xmlns="http://www.w3.org/2000/svg"
 width="64.000000pt" height="64.000000pt" viewBox="0 0 64.000000 64.000000"
 preserveAspectRatio="xMidYMid meet">

<g transform="translate(0.000000,64.000000) scale(0.100000,-0.100000)"
fill="#6A5ACD" stroke="none">
<path d="M180 619 c-91 -13 -161 -33 -160 -44 1 -12 14 -11 113 9 44 9 127 16
187 16 60 0 143 -7 187 -16 100 -20 107 -21 111 -9 11 33 -301 64 -438 44z"/>
<path d="M80 538 c-33 -9 -34 -10 -15 -25 41 -30 55 -35 61 -19 7 17 56 36 94
36 31 0 27 20 70 -305 12 -88 24 -167 27 -175 3 -8 16 59 28 150 49 354 44
330 75 330 36 0 80 -17 94 -35 9 -12 16 -11 44 7 31 19 32 22 15 32 -28 16
-220 21 -239 6 -11 -10 -18 -10 -26 -2 -15 15 -178 14 -228 0z"/>
</g>
</svg>
