<?xml version="1.0" standalone="no"?>
<!DOCTYPE svg PUBLIC "-//W3C//DTD SVG 20010904//EN"
 "http://www.w3.org/TR/2001/REC-SVG-20010904/DTD/svg10.dtd">
<svg version="1.0" xmlns="http://www.w3.org/2000/svg"
 width="36.000000pt" height="36.000000pt" viewBox="0 0 36.000000 36.000000"
 preserveAspectRatio="xMidYMid meet">

<g transform="translate(0.000000,36.000000) scale(0.100000,-0.100000)"
fill="#6A5ACD" stroke="none">
<path d="M42 318 c-7 -7 -11 -30 -11 -52 l1 -41 8 38 c9 47 16 55 60 60 35 4
35 4 -5 5 -23 1 -46 -3 -53 -10z"/>
<path d="M263 320 c47 -9 55 -16 60 -60 4 -35 4 -35 5 6 2 50 -11 64 -62 63
l-41 -1 38 -8z"/>
<path d="M207 273 c-4 -3 -7 -19 -7 -35 0 -25 3 -28 35 -28 33 0 35 2 35 35 0
32 -3 35 -28 35 -16 0 -32 -3 -35 -7z m53 -33 c0 -13 -7 -20 -20 -20 -13 0
-20 7 -20 20 0 13 7 20 20 20 13 0 20 -7 20 -20z"/>
<path d="M90 234 c0 -34 1 -35 33 -32 28 3 32 7 35 36 3 31 2 32 -32 32 -35 0
-36 -1 -36 -36z m50 6 c0 -13 -7 -20 -20 -20 -13 0 -20 7 -20 20 0 13 7 20 20
20 13 0 20 -7 20 -20z"/>
<path d="M240 150 c0 -5 7 -10 15 -10 8 0 15 5 15 10 0 6 -7 10 -15 10 -8 0
-15 -4 -15 -10z"/>
<path d="M90 114 c0 -34 1 -35 33 -32 28 3 32 7 35 36 3 31 2 32 -32 32 -35 0
-36 -1 -36 -36z m50 6 c0 -13 -7 -20 -20 -20 -13 0 -20 7 -20 20 0 13 7 20 20
20 13 0 20 -7 20 -20z"/>
<path d="M200 135 c0 -8 5 -15 10 -15 6 0 10 7 10 15 0 8 -4 15 -10 15 -5 0
-10 -7 -10 -15z"/>
<path d="M32 95 c-2 -51 11 -65 62 -64 l41 1 -38 8 c-47 9 -55 16 -60 60 -4
35 -4 35 -5 -5z"/>
<path d="M322 104 c-3 -42 -21 -62 -62 -67 -34 -4 -34 -4 6 -5 51 -2 67 14 61
65 -3 33 -4 34 -5 7z"/>
<path d="M238 93 c6 -2 18 -2 25 0 6 3 1 5 -13 5 -14 0 -19 -2 -12 -5z"/>
</g>
</svg>
