<?xml version="1.0" standalone="no"?>
<!DOCTYPE svg PUBLIC "-//W3C//DTD SVG 20010904//EN"
 "http://www.w3.org/TR/2001/REC-SVG-20010904/DTD/svg10.dtd">
<svg version="1.0" xmlns="http://www.w3.org/2000/svg"
 width="52.000000pt" height="52.000000pt" viewBox="0 0 52.000000 52.000000"
 preserveAspectRatio="xMidYMid meet">

<g transform="translate(0.000000,52.000000) scale(0.100000,-0.100000)"
fill="#6A5ACD" stroke="none">
<path d="M130 435 l-64 -65 64 -65 65 -66 5 43 5 43 92 3 c64 2 103 -2 127
-12 36 -15 76 -67 76 -98 0 -10 5 -18 10 -18 18 0 10 75 -12 120 -34 66 -72
84 -193 90 l-100 5 -5 43 -5 43 -65 -66z m60 -15 l0 -30 104 0 c90 0 107 -3
136 -22 18 -13 40 -34 48 -46 l16 -24 -35 21 c-29 18 -50 21 -151 21 l-118 0
0 -30 c0 -16 -3 -30 -7 -30 -4 0 -27 19 -50 42 l-43 42 42 43 c23 24 46 43 50
43 4 0 8 -13 8 -30z"/>
<path d="M0 282 c0 -53 38 -122 80 -147 26 -15 59 -21 135 -25 l100 -5 5 -43
5 -43 65 66 64 65 -64 65 -65 66 -5 -43 -5 -43 -92 -3 c-64 -2 -103 2 -127 12
-36 15 -76 67 -76 99 0 9 -4 17 -10 17 -5 0 -10 -17 -10 -38z m388 -85 l42
-43 -43 -42 c-23 -23 -46 -42 -50 -42 -4 0 -7 14 -7 30 l0 30 -104 0 c-90 0
-107 3 -136 22 -18 13 -40 34 -48 46 l-16 24 35 -21 c29 -18 50 -21 152 -21
l117 0 0 30 c0 17 4 30 8 30 4 0 27 -19 50 -43z"/>
</g>
</svg>
