<?xml version="1.0" standalone="no"?>
<!DOCTYPE svg PUBLIC "-//W3C//DTD SVG 20010904//EN"
 "http://www.w3.org/TR/2001/REC-SVG-20010904/DTD/svg10.dtd">
<svg version="1.0" xmlns="http://www.w3.org/2000/svg"
 width="52.000000pt" height="52.000000pt" viewBox="0 0 52.000000 52.000000"
 preserveAspectRatio="xMidYMid meet">

<g transform="translate(0.000000,52.000000) scale(0.100000,-0.100000)"
fill="#6A5ACD" stroke="none">
<path d="M254 475 c-54 -27 -81 -35 -124 -35 -108 0 -130 -38 -130 -222 0
-158 4 -174 41 -193 35 -19 394 -22 432 -4 39 18 47 50 47 190 0 157 -11 191
-68 217 -22 10 -50 29 -63 44 -38 42 -58 42 -135 3z m106 0 c7 -9 11 -17 9
-19 -2 -1 -34 -19 -71 -39 -55 -31 -76 -37 -125 -37 l-58 0 100 55 c108 58
126 63 145 40z m45 -65 l16 -30 -73 0 -73 0 50 30 c28 16 53 30 57 30 4 0 14
-13 23 -30z m-265 11 c0 -8 -89 -51 -106 -51 -14 0 23 34 51 46 35 16 55 17
55 5z m331 -28 c19 -21 20 -25 6 -20 -10 4 -23 7 -27 7 -5 0 -14 9 -20 20 -16
30 11 26 41 -7z m11 -50 c10 -9 18 -29 18 -45 0 -27 -2 -28 -52 -28 -64 0 -98
-26 -98 -76 0 -46 38 -74 101 -74 48 0 49 -1 49 -29 0 -56 -21 -61 -242 -61
-252 0 -238 -10 -238 167 0 104 3 130 17 145 15 16 35 18 221 18 177 0 208 -2
224 -17z m18 -148 l0 -55 -47 0 c-55 0 -83 21 -83 61 0 35 22 48 83 49 l47 0
0 -55z"/>
<path d="M400 215 c-18 -21 -5 -47 22 -43 26 3 37 36 16 49 -18 12 -24 11 -38
-6z m30 -21 c0 -8 -4 -12 -10 -9 -5 3 -10 10 -10 16 0 5 5 9 10 9 6 0 10 -7
10 -16z"/>
</g>
</svg>
